<svg width="629" height="576" viewBox="0 0 629 576" fill="none" xmlns="http://www.w3.org/2000/svg">
<mask id="mask0" mask-type="alpha" maskUnits="userSpaceOnUse" x="-113" y="1" width="741" height="575">
<path d="M627.625 1.27637H-112.613V576H627.625V1.27637Z" fill="#C4C4C4"/>
</mask>
<g mask="url(#mask0)">
<path d="M627.625 1.27637H-112.613V576H627.625V1.27637Z" fill="#FF6C46"/>
<path d="M234.363 73.5076C235.575 66.8625 238.089 60.6146 241.716 55.2297C245.345 49.8448 249.992 45.4618 255.315 42.4072C273.661 31.6829 294.454 42.1425 300.055 53.1314C305.656 64.1204 304.765 69.4962 313.937 73.5076C323.11 77.5187 329.947 69.2179 346.202 79.7053C362.457 90.1927 369.514 101.989 368.806 122.073C368.095 142.157 361.98 144.859 366.456 154.775C370.933 164.692 382.467 162.282 391.408 177.561C400.349 192.839 399.883 208.661 393.535 222.129C387.188 235.596 390.001 240.891 397.058 246.53C404.115 252.172 417.778 249.468 423.196 266.628C428.613 283.788 423.906 292.644 418.964 300.68C414.022 308.716 413.779 316.238 418.023 322.129C422.267 328.021 426.731 336.615 417.08 347.603C407.43 358.591 406.011 361.281 409.069 368.494C412.127 375.709 416.604 392.896 405.534 400.667L186.919 321.781C186.919 321.781 169.967 309.316 175.264 294.832C180.56 280.346 186.919 272.31 180.56 261.406C174.199 250.5 156.195 248.132 150.191 231.237C144.184 214.344 160.781 203.089 157.248 190.625C153.712 178.16 139.5 174.19 141.005 154.079C142.424 135.973 152.66 126.335 163.252 120.652C173.845 114.97 174.016 104.984 177.379 86.878C181.268 65.9867 205.633 53.8975 216.934 60.332C223.245 63.7954 229.111 68.2286 234.363 73.5076Z" fill="#3A4E5B"/>
<path d="M222.582 82.4908C212.699 81.697 201.789 78.8696 195.747 89.3293C189.705 99.7888 194.328 107.825 187.271 119.496C180.214 131.168 172.435 130.75 163.959 140.388C155.483 150.026 154.773 161.711 161.134 170.555C167.495 179.399 175.26 191.864 169.61 205.945C163.959 220.026 163.249 226.057 175.614 233.69C187.98 241.322 203.514 257.825 195.393 281.544" stroke="#201C33" stroke-linecap="round" stroke-linejoin="round"/>
<path d="M242.713 76.4597C246.957 67.6156 265.317 50.7215 279.089 59.9694C292.861 69.2173 287.565 83.2982 305.997 90.1366C324.429 96.9751 336.011 88.521 347.312 104.217C358.613 119.914 350.138 132.365 350.138 147.24C350.138 162.115 354.382 171.78 363.91 179.009C373.438 186.237 383.688 193.493 379.455 209.65C375.223 225.806 370.27 243.423 378.746 255.096C387.222 266.766 405.52 264.677 407.354 279.149C409.189 293.619 401.348 294.468 399.929 310.109C398.51 325.751 410.938 327.812 407.354 337.867" stroke="#201C33" stroke-linecap="round" stroke-linejoin="round"/>
<path d="M246.959 89.7329C255.081 96.5715 258.26 96.1674 271.322 96.5715C284.385 96.9753 290.744 105.012 294.634 113.466C298.524 121.92 310.535 125.931 312.296 135.987C314.056 146.042 307.343 159.664 312.994 170.973C318.644 182.282 334.899 188.257 334.899 210.388C334.899 232.519 321.824 239.732 324.649 256.627C327.474 273.522 347.961 284.775 344.071 304.887C340.182 324.998 332.416 335.848 332.416 335.848" stroke="#201C33" stroke-linecap="round" stroke-linejoin="round"/>
<path d="M306.397 188.535C312.634 201.529 323.239 205.555 318.995 218.021C314.751 230.486 306.984 243.355 309.809 260.249C312.634 277.142 329.244 287.992 324.291 300.457C320.851 308.902 316.957 317.097 312.634 324.998" stroke="#201C33" stroke-linecap="round" stroke-linejoin="round"/>
<path d="M310.875 108.229C322.532 110.248 333.479 117.087 331.669 135.179C329.859 153.271 326.373 160.917 335.544 170.973C344.718 181.029 360.619 197.909 356.031 215.207C351.445 232.505 342.259 245.848 346.847 259.037" stroke="#201C33" stroke-linecap="round" stroke-linejoin="round"/>
<path d="M260.019 79.7051C266.378 77.6995 278.365 80.1089 281.556 86.1396" stroke="#201C33" stroke-linecap="round" stroke-linejoin="round"/>
<path d="M218.703 99.3848C209.873 100.596 205.983 108.633 204.223 121.098C202.46 133.563 187.626 144.775 182.329 146.432" stroke="#201C33" stroke-linecap="round" stroke-linejoin="round"/>
<path d="M187.27 197.909C185.153 207.561 182.671 218.424 188.676 222.448C194.681 226.474 203.867 232.102 205.627 241.35" stroke="#201C33" stroke-linecap="round" stroke-linejoin="round"/>
<path d="M295.688 209.232C300.642 216.879 301.338 226.92 296.752 238.187" stroke="#201C33" stroke-linecap="round" stroke-linejoin="round"/>
<path d="M296.049 272.715C300.942 283.982 311.95 298.049 300.648 316.545" stroke="#201C33" stroke-linecap="round" stroke-linejoin="round"/>
<path d="M188.324 298.049C184.092 308.913 199.332 319.371 199.332 319.371" stroke="#201C33" stroke-linecap="round" stroke-linejoin="round"/>
<path d="M362.794 255.429C362.44 266.278 370.205 279.552 378.695 283.982C387.183 288.411 385.054 297.24 381.52 306.891C377.985 316.545 381.875 328.215 387.525 337.867C393.176 347.518 386.815 353.953 386.46 359.984C386.106 366.015 388.577 376.878 388.577 376.878" stroke="#201C33" stroke-linecap="round" stroke-linejoin="round"/>
<path d="M354.322 281.558C361.024 291.209 366.675 303.674 362.443 312.533C358.21 321.392 363.494 333.034 366.675 341.084C369.854 349.134 364.546 358.368 364.546 358.368" stroke="#201C33" stroke-linecap="round" stroke-linejoin="round"/>
<path d="M349.01 322.979C346.893 329.022 356.079 338.299 352.9 346.309" stroke="#201C33" stroke-linecap="round" stroke-linejoin="round"/>
<path d="M205.273 317.352C190.865 324.19 165.181 339.469 165.181 339.469C165.181 339.469 104.673 374.065 86.3153 424.329C67.9574 474.594 64.7638 499.135 64.7638 499.135C64.7638 499.135 80.9573 515.221 111.695 525.667L104.858 782.925C104.858 782.925 76.604 888.021 58.7714 975.961C40.9387 1063.9 30.4569 1160.41 30.4569 1160.41C30.4569 1160.41 117.1 1190.43 261.193 1188.34C405.285 1186.26 450.489 1155.06 450.489 1155.06C450.489 1155.06 438.259 1006.03 427.887 922.341C417.515 838.648 392.1 737.882 392.1 737.882L390.229 525.543L447.713 499.803C447.713 499.803 439.151 434.86 409.993 395.778C380.835 356.699 313.468 320.166 296.051 314.273C278.634 308.383 205.273 317.352 205.273 317.352Z" fill="#64D0FF"/>
<path d="M301.652 380.222C301.432 381.28 301.211 382.338 300.991 383.439C293.654 418.258 257.657 516.698 252.962 516.154C248.265 515.612 198.326 409.986 191.501 383.174C191.33 382.496 191.172 381.814 191.024 381.127C227.558 383.981 281.044 381.404 301.652 380.222Z" fill="#C7D5D1"/>
<path d="M171.296 339.469C166.111 348.049 160.459 398.454 160.459 398.454L190.132 405.96L170.355 426.85C178.819 447.749 189.748 467.232 202.839 484.761C216.172 502.425 232.107 517.304 249.929 528.732" stroke="#201C33" stroke-linecap="round" stroke-linejoin="round"/>
<path d="M322.888 329.817C328.539 345.903 331.829 398.452 331.829 398.452L303.575 404.358L323.352 418.828C323.352 418.828 313.935 454.219 297.924 478.355C281.914 502.493 241.896 539.483 241.896 539.483C241.896 539.483 243.778 701.42 245.662 759.861C247.546 818.301 244.684 1187.76 244.684 1187.76" stroke="#201C33" stroke-linecap="round" stroke-linejoin="round"/>
<path d="M71.893 505.696C71.893 505.696 64.8854 590.416 81.7875 681.573C98.6913 772.729 122.749 844.527 136.828 891.769C150.905 939.011 168.848 995.794 171.295 1008.13C173.741 1020.47 186.827 1063.84 191.071 1068.72C195.315 1073.59 208.966 1068.19 208.966 1068.19C208.966 1068.19 213.673 1073.55 224.976 1071.94C236.277 1070.32 241.45 1066.05 241.45 1066.05C241.45 1066.05 245.218 1074.08 251.809 1070.86C258.403 1067.65 252.752 963.092 252.752 963.092C252.752 963.092 208.966 736.267 206.14 718.036C203.315 699.804 173.642 524.441 173.642 524.441C173.642 524.441 151.479 526.071 119.924 519.107C88.3686 512.145 71.893 505.696 71.893 505.696Z" fill="#F7E5DD"/>
<path d="M308.513 331.698C308.513 331.698 308.305 347.547 301.652 380.222C281.042 381.404 227.544 383.981 191.024 381.127C185.178 355.109 194.57 331.698 194.57 331.698C204.93 326.879 207.046 281.837 210.335 257.701C213.626 233.563 211.558 203.021 211.558 203.021C210.617 201.405 205.908 189.872 205.908 189.872C202.374 190.402 181.189 189.872 181.189 170.847C181.189 151.822 196.979 150.457 196.979 150.457L200.99 168.424L203.095 148.048C203.095 148.048 204.501 150.457 209.676 146.432C214.849 142.407 218.397 135.457 217.931 129.023C217.466 122.588 218.397 116.948 227.336 112.379C229.941 111.079 232.273 109.165 234.181 106.765C236.088 104.364 237.528 101.531 238.406 98.4517C240.753 106.223 253.242 112.379 261.485 110.513C269.728 108.647 280.088 111.585 282.669 118.87C285.251 126.154 290.852 131.432 297.272 136.808C303.695 142.185 299.634 147.268 298.691 161.223C297.75 175.179 306.458 188.563 306.458 188.563C304.03 189.165 301.508 189.069 299.119 188.285C297.181 193.797 294.299 198.815 290.644 203.049C290.399 211.892 291.109 282.672 295.536 305.194C299.964 327.714 308.513 331.698 308.513 331.698Z" fill="#F7E5DD"/>
<path d="M227.533 162.714C228.668 162.714 229.588 161.186 229.588 159.301C229.588 157.417 228.668 155.889 227.533 155.889C226.398 155.889 225.478 157.417 225.478 159.301C225.478 161.186 226.398 162.714 227.533 162.714Z" fill="#100C27"/>
<path d="M274.145 162.519C272.788 162.519 272.09 161.377 272.09 159.107C272.09 156.836 272.788 155.694 274.145 155.694C275.504 155.694 276.2 156.836 276.2 159.107C276.2 161.377 275.504 162.519 274.145 162.519Z" fill="#100C27"/>
<path d="M217.64 142.213C222.766 139.427 234.067 138.995 238.836 142.017" stroke="#3A4E5B" stroke-linecap="round" stroke-linejoin="round"/>
<path d="M263.555 141.209C272.03 137.184 281.741 139.608 285.275 141.015" stroke="#3A4E5B" stroke-linecap="round" stroke-linejoin="round"/>
<path d="M249.069 153.076C248.544 157.839 245.399 168.786 244.176 173.02L253.008 174.789" stroke="#FF6C46" stroke-linecap="round" stroke-linejoin="round"/>
<path d="M237.341 186.544C238.98 180.973 245.597 183.508 250.098 184.524C254.599 185.541 259.564 180.43 263.38 185.597C266.39 189.664 258.782 197.087 250.734 196.739C243.041 196.293 235.997 191.349 237.341 186.544Z" fill="white" stroke="#FF6C46" stroke-linecap="round" stroke-linejoin="round"/>
<path d="M212.7 205.75C215.147 211.181 233.358 228.271 253.308 226.864C273.255 225.457 289.156 205.75 289.156 205.75" stroke="#201C33" stroke-linecap="round" stroke-linejoin="round"/>
<path d="M210.751 149.259C210.751 149.259 215.166 146.237 227.531 145.833C239.567 145.443 244.656 149.259 244.656 149.259C244.656 149.259 245.951 165.276 240.766 171.168C235.581 177.059 216.867 175.805 212.88 169.357C208.892 162.908 210.751 149.259 210.751 149.259Z" stroke="#E7BE76" stroke-linecap="round" stroke-linejoin="round"/>
<path d="M292.38 149.259C292.38 149.259 287.965 146.237 275.599 145.833C263.565 145.443 258.477 149.259 258.477 149.259C258.477 149.259 257.18 165.276 262.354 171.168C267.527 177.059 286.266 175.805 290.265 169.357C294.264 162.908 292.38 149.259 292.38 149.259Z" stroke="#E7BE76" stroke-linecap="round" stroke-linejoin="round"/>
<path d="M244.68 149.26C249.266 149.051 257.143 148.647 258.512 149.26" stroke="#E7BE76" stroke-linecap="round" stroke-linejoin="round"/>
<path d="M292.38 149.259C297.272 148.452 300.085 148.243 300.085 148.243" stroke="#E7BE76" stroke-linecap="round" stroke-linejoin="round"/>
<path d="M210.229 149.26C206.169 149.051 199.625 148.048 195.039 148.856" stroke="#E7BE76" stroke-linecap="round" stroke-linejoin="round"/>
<path d="M318.642 521.209C318.642 521.209 356.558 520.778 383.625 516.92C403.149 513.928 422.392 508.903 441.109 501.906C441.109 501.906 436.402 581.796 410.973 692.255C385.546 802.715 346.468 923.899 333.283 969.484C320.098 1015.07 304.088 1055.84 293.25 1063.86C282.415 1071.88 276.74 1074.14 271.59 1071.35C266.441 1068.57 260.056 1070.14 254.051 1068.57C248.045 1066.99 249.159 1063.75 243.459 1063.34C237.759 1062.94 228.268 1068.57 222.972 1067.77C217.676 1066.98 210.619 1064.15 211.671 1057.31C212.723 1050.47 216.269 1025.14 216.269 1025.14C216.269 1025.14 202.816 1038.01 189.067 1035.6C175.32 1033.19 168.936 1023.52 177.058 1015.08C185.179 1006.64 200.014 996.977 210.264 980.905C216.576 970.975 232.866 947.479 232.866 947.479L282.891 733.536L318.642 521.209Z" fill="#F7E5DD"/>
</g>
</svg>
