<svg width="690" height="576" viewBox="0 0 690 576" fill="none" xmlns="http://www.w3.org/2000/svg">
<path d="M743.621 1.27637H1.38855V576H743.621V1.27637Z" fill="#4E4395"/>
<g opacity="0.4">
<path opacity="0.4" d="M665.342 112.962C531.163 118.249 448.669 275.858 512.943 355.27C579.729 437.826 632.368 371.976 614.031 325.741C580.776 241.888 458.116 249.448 405.407 334.809C352.7 420.169 379.136 509.282 379.136 509.282" fill="#4E4395"/>
<path opacity="0.4" d="M665.342 112.962C531.163 118.249 448.669 275.858 512.943 355.27C579.729 437.826 632.368 371.976 614.031 325.741C580.776 241.888 458.116 249.448 405.407 334.809C352.7 420.169 379.136 509.282 379.136 509.282" stroke="#C2ADE2" stroke-width="2" stroke-linecap="round" stroke-linejoin="round"/>
</g>
<path d="M182.177 275.972C180.595 275.972 179.805 275.262 179.805 273.841V273.391C179.805 272.494 180.465 271.148 181.781 269.351C183.1 267.483 183.757 265.574 183.757 263.629V208.647C183.757 206.702 183.1 204.831 181.781 203.037C180.465 201.167 179.805 199.782 179.805 198.885V198.436C179.805 197.014 180.564 196.304 182.078 196.304H227.331C228.385 196.304 229.143 196.566 229.604 197.089C230.131 197.613 230.493 198.511 230.691 199.782L233.061 213.921C233.193 214.892 233.029 215.679 232.568 216.277C232.106 216.875 231.447 217.174 230.592 217.174H230.097C228.846 217.174 227.561 216.502 226.244 215.155C224.992 213.734 223.873 212.237 222.885 210.668C221.962 209.02 220.743 207.525 219.229 206.178C217.779 204.757 216.265 204.047 214.683 204.047H205.989C203.025 204.047 201.542 205.879 201.542 209.544V231.538H211.918C213.103 231.538 214.157 231.088 215.079 230.191C216.002 229.218 216.693 228.17 217.154 227.048C217.615 225.927 218.142 224.917 218.736 224.02C219.393 223.047 220.019 222.561 220.612 222.561H221.402C222.721 222.561 223.378 223.422 223.378 225.142V245.34C223.378 247.06 222.721 247.921 221.402 247.921H220.612C220.019 247.921 219.393 247.471 218.736 246.574C218.142 245.675 217.615 244.704 217.154 243.656C216.693 242.608 216.002 241.637 215.079 240.738C214.157 239.841 213.103 239.391 211.918 239.391H201.542V260.039C201.542 262.283 202.003 264.228 202.926 265.873C203.848 267.445 205.363 268.229 207.471 268.229H217.845C219.427 268.229 220.876 267.519 222.192 266.098C223.576 264.603 224.696 262.993 225.552 261.273C226.409 259.553 227.43 257.982 228.616 256.561C229.867 255.064 231.152 254.315 232.469 254.315H233.358C234.082 254.315 234.642 254.69 235.038 255.439C235.432 256.111 235.565 256.86 235.432 257.683L233.259 272.382C233.061 273.654 232.698 274.59 232.172 275.188C231.71 275.711 230.921 275.972 229.8 275.972H182.177Z" fill="#FF6C46"/>
<path d="M292.648 227.385C292.648 227.984 292.286 228.694 291.561 229.517C290.836 230.34 290.112 231.425 289.387 232.772C288.663 234.119 288.3 235.688 288.3 237.485V287.418C288.3 289.288 288.96 291.159 290.276 293.027C291.595 294.898 292.252 296.283 292.252 297.18V297.517C292.252 298.938 291.462 299.648 289.882 299.648H269.527C267.947 299.648 267.156 298.938 267.156 297.517V297.18C267.156 296.283 267.88 294.898 269.329 293.027C270.778 291.159 271.503 289.288 271.503 287.418V273.728C268.605 275.972 265.18 277.094 261.228 277.094C254.838 277.094 249.339 274.626 244.728 269.688C240.183 264.677 237.91 257.795 237.91 249.043C237.91 240.888 240.216 234.193 244.827 228.957C249.438 223.644 254.937 220.989 261.327 220.989C266.201 220.989 270.186 222.561 273.283 225.702V225.029C273.283 223.833 273.71 222.934 274.567 222.336C275.423 221.738 276.575 221.551 278.024 221.776L290.276 223.795C291.858 224.02 292.648 225.067 292.648 226.936V227.385ZM265.18 271.597C266.959 271.671 268.44 270.848 269.626 269.128C270.877 267.406 271.503 265.088 271.503 262.17V240.515C271.503 236.475 270.614 233.145 268.836 230.528C267.057 227.835 264.982 226.488 262.61 226.488C257.736 226.488 255.135 231.088 254.806 240.29C254.674 243.806 254.937 247.883 255.596 252.521C256.321 257.159 257.507 261.498 259.154 265.536C260.866 269.502 262.875 271.521 265.18 271.597Z" fill="#FF6C46"/>
<path d="M345.686 263.629C345.686 265.648 345.884 267.184 346.28 268.229C346.741 269.277 347.234 269.875 347.762 270.026C348.354 270.1 348.849 270.363 349.243 270.81C349.704 271.26 349.936 271.97 349.936 272.944C349.936 274.365 349.079 275.336 347.366 275.86C345.719 276.384 343.183 276.647 339.758 276.647C336.662 276.647 334.39 276.159 332.941 275.188C331.557 274.214 330.733 272.532 330.47 270.138C327.835 274.776 323.193 277.094 316.539 277.094C311.269 277.094 306.856 275.149 303.299 271.26C299.809 267.294 298.063 261.871 298.063 254.989V236.25C298.063 234.306 297.403 232.435 296.087 230.639C294.769 228.845 294.109 227.572 294.109 226.826V226.376C294.109 224.879 294.868 224.02 296.382 223.795L311.105 221.551C314.201 221.102 315.749 221.85 315.749 223.795L315.452 257.008C315.387 261.498 315.848 264.751 316.836 266.772C317.889 268.717 319.536 269.688 321.775 269.688C323.62 269.688 325.168 268.679 326.419 266.66C327.671 264.565 328.296 261.833 328.296 258.468V236.25C328.296 234.306 327.639 232.435 326.32 230.639C325.004 228.845 324.345 227.572 324.345 226.826V226.376C324.345 224.879 325.101 224.02 326.617 223.795L341.338 221.551C344.237 221.102 345.686 221.85 345.686 223.795V263.629Z" fill="#FF6C46"/>
<path d="M399.506 263.742C399.704 265.536 400.067 266.995 400.593 268.117C401.185 269.165 401.745 269.839 402.272 270.138C402.866 270.437 403.392 270.81 403.854 271.26C404.315 271.709 404.545 272.269 404.545 272.944C404.545 275.412 400.823 276.647 393.379 276.647C390.35 276.647 388.078 276.235 386.563 275.412C385.114 274.589 384.192 273.205 383.796 271.26C381.293 275.149 377.11 277.094 371.248 277.094C365.715 277.094 361.202 275.635 357.712 272.719C354.287 269.801 352.574 265.574 352.574 260.039C352.574 254.652 354.287 250.464 357.712 247.471C361.136 244.405 365.353 242.871 370.358 242.871C374.244 242.871 377.572 243.806 380.337 245.675V245.34C379.68 237.934 378.922 232.921 378.065 230.304C377.275 227.685 375.693 226.376 373.323 226.376C371.807 226.376 370.589 227.161 369.667 228.732C368.744 230.304 368.053 232.024 367.592 233.894C367.196 235.765 366.406 237.485 365.22 239.056C364.035 240.625 362.455 241.412 360.477 241.412C358.436 241.412 356.755 240.738 355.439 239.391C354.188 238.046 353.562 236.288 353.562 234.119C353.562 229.78 355.472 226.524 359.291 224.357C363.112 222.111 367.79 220.989 373.323 220.989C379.91 220.989 385.344 223.046 389.626 227.161C393.973 231.201 396.541 236.7 397.333 243.656L399.506 263.742ZM376.683 271.372C378.197 271.372 379.415 270.549 380.337 268.904C381.325 267.258 381.82 265.387 381.82 263.292L381.424 258.13C380.767 251.923 378.724 248.818 375.299 248.818C373.784 248.818 372.565 249.528 371.643 250.949C370.72 252.296 370.259 254.128 370.259 256.448C370.259 260.637 370.819 264.191 371.939 267.107C373.125 269.951 374.705 271.372 376.683 271.372Z" fill="#FF6C46"/>
<path d="M407.388 275.972C405.874 275.972 405.115 275.262 405.115 273.841V273.391C405.115 272.494 405.743 271.147 406.994 269.351C408.311 267.483 408.97 265.612 408.97 263.742V212.462C408.97 210.517 408.311 208.646 406.994 206.852C405.743 204.982 405.115 203.671 405.115 202.925V202.475C405.115 201.652 405.84 200.791 407.289 199.894L422.21 191.591C423.594 190.917 424.68 190.88 425.47 191.479C426.326 192.002 426.755 192.825 426.755 193.947V263.742C426.755 265.612 427.48 267.483 428.929 269.351C430.378 271.147 431.102 272.494 431.102 273.391V273.841C431.102 275.262 430.311 275.972 428.731 275.972H407.388Z" fill="#FF6C46"/>
<path d="M447.181 215.492C443.821 215.492 441.087 214.444 438.981 212.349C436.872 210.18 435.819 207.486 435.819 204.271C435.819 201.054 436.872 198.398 438.981 196.303C441.087 194.134 443.821 193.049 447.181 193.049C450.475 193.049 453.175 194.134 455.283 196.303C457.392 198.398 458.445 201.054 458.445 204.271C458.445 207.486 457.392 210.18 455.283 212.349C453.175 214.444 450.475 215.492 447.181 215.492ZM436.609 275.972C435.027 275.972 434.238 275.262 434.238 273.841V273.391C434.238 272.494 434.897 271.109 436.213 269.241C437.532 267.37 438.189 265.5 438.189 263.629V242.309C438.189 240.364 437.532 238.494 436.213 236.7C434.897 234.829 434.238 233.557 434.238 232.884V232.435C434.238 231.538 434.996 230.677 436.51 229.854L451.429 221.551C452.813 220.877 453.9 220.802 454.69 221.326C455.481 221.85 455.875 222.711 455.875 223.907V263.629C455.875 265.5 456.6 267.37 458.049 269.241C459.565 271.109 460.322 272.494 460.322 273.391V273.841C460.322 275.262 459.498 275.972 457.853 275.972H436.609Z" fill="#FF6C46"/>
<path d="M483.598 277.094C478.591 277.094 474.64 275.3 471.741 271.709C468.909 268.117 467.493 262.993 467.493 256.336V229.742H463.738C463.079 229.742 462.52 229.517 462.059 229.069C461.663 228.546 461.465 227.909 461.465 227.161V224.692C461.465 222.972 462.223 222.111 463.738 222.111H465.615C468.645 222.111 471.247 221.102 473.42 219.083C475.594 216.988 477.011 214.22 477.669 210.778C477.999 208.833 478.888 207.862 480.337 207.862H482.61C484.388 207.862 485.277 208.833 485.277 210.778V222.111H495.454C496.113 222.111 496.64 222.374 497.036 222.898C497.497 223.346 497.727 223.946 497.727 224.692V227.161C497.727 227.909 497.497 228.546 497.036 229.069C496.64 229.517 496.113 229.742 495.454 229.742H485.277V256.673C485.277 258.542 485.706 260.039 486.561 261.161C487.418 262.209 488.472 262.732 489.723 262.732C492.556 262.732 494.729 261.348 496.244 258.58C496.705 257.908 497.234 257.532 497.826 257.458C498.418 257.307 498.913 257.42 499.308 257.795C499.77 258.168 499.999 258.692 499.999 259.365C499.999 264.079 498.517 268.229 495.553 271.82C492.655 275.336 488.67 277.094 483.598 277.094Z" fill="#FF6C46"/>
<path d="M552.016 222.111C553.532 222.111 554.288 222.822 554.288 224.245V224.692C554.288 225.814 553.532 227.348 552.016 229.294C550.567 231.239 549.547 232.997 548.953 234.567L530.279 280.237C529.356 282.629 528.436 284.687 527.513 286.409C526.656 288.203 525.438 290.26 523.857 292.58C522.342 294.974 520.531 296.807 518.423 298.077C516.314 299.424 514.042 300.098 511.605 300.098C506.994 300.098 503.207 298.788 500.243 296.171C497.345 293.551 495.896 290.523 495.896 287.081C495.896 284.687 496.521 282.78 497.773 281.359C499.024 279.938 500.736 279.228 502.91 279.228C505.084 279.228 506.764 280.012 507.95 281.584C509.201 283.153 509.958 284.837 510.223 286.633C510.551 288.502 511.013 290.224 511.605 291.793C512.199 293.365 512.988 294.151 513.976 294.151C516.546 294.151 519.642 289.289 523.265 279.563L503.207 234.567C502.482 232.997 501.362 231.275 499.847 229.405C498.398 227.46 497.674 225.89 497.674 224.692V224.245C497.674 222.822 498.432 222.111 499.946 222.111H521.19C522.639 222.111 523.364 222.86 523.364 224.357V224.805C523.364 225.553 523.067 226.414 522.473 227.386C521.881 228.359 521.485 229.256 521.287 230.079C521.091 230.902 521.321 232.473 521.98 234.791L532.058 261.723L541.147 236.7C541.872 233.932 541.872 232.024 541.147 230.976C540.49 229.854 539.534 228.732 538.283 227.61C537.097 226.489 536.505 225.553 536.505 224.805V224.357C536.505 222.86 537.261 222.111 538.777 222.111H552.016Z" fill="#FF6C46"/>
<path d="M230.509 317.848C227.149 317.848 224.415 316.8 222.307 314.705C220.199 312.535 219.146 309.842 219.146 306.627C219.146 303.41 220.199 300.754 222.307 298.659C224.415 296.49 227.149 295.406 230.509 295.406C233.801 295.406 236.501 296.49 238.61 298.659C240.718 300.754 241.771 303.41 241.771 306.627C241.771 309.842 240.718 312.535 238.61 314.705C236.501 316.8 233.801 317.848 230.509 317.848ZM219.935 378.328C218.356 378.328 217.564 377.617 217.564 376.196V375.747C217.564 374.85 218.223 373.465 219.541 371.596C220.858 369.726 221.517 367.855 221.517 365.985V344.665C221.517 342.72 220.858 340.85 219.541 339.055C218.223 337.185 217.564 335.912 217.564 335.24V334.791C217.564 333.893 218.322 333.032 219.836 332.21L234.757 323.907C236.139 323.232 237.226 323.158 238.018 323.682C238.808 324.206 239.203 325.067 239.203 326.263V365.985C239.203 367.855 239.928 369.726 241.377 371.596C242.892 373.465 243.65 374.85 243.65 375.747V376.196C243.65 377.617 242.826 378.328 241.179 378.328H219.935Z" fill="#FF6C46"/>
<path d="M300.024 366.097C300.157 367.968 300.782 369.838 301.901 371.707C303.021 373.503 303.582 374.888 303.582 375.859V376.309C303.582 377.73 302.792 378.44 301.21 378.44H281.449C279.869 378.44 279.077 377.73 279.077 376.309V375.859C279.077 374.962 279.703 373.577 280.956 371.707C282.207 369.838 282.767 367.968 282.635 366.097L281.647 346.011C281.384 340.476 280.724 336.549 279.671 334.229C278.683 331.91 277.068 330.75 274.829 330.75C272.721 330.75 271.107 331.724 269.989 333.669C268.933 335.613 268.407 338.269 268.407 341.636V366.097C268.407 367.968 269.131 369.838 270.581 371.707C272.03 373.577 272.754 374.962 272.754 375.859V376.309C272.754 377.73 271.964 378.44 270.383 378.44H249.042C247.46 378.44 246.67 377.73 246.67 376.309V375.859C246.67 374.962 247.395 373.577 248.844 371.707C250.293 369.838 251.017 367.968 251.017 366.097V343.992C251.017 342.421 250.59 341.112 249.733 340.065C248.876 338.943 247.987 338.008 247.064 337.259C246.209 336.436 245.781 335.575 245.781 334.678V334.341C245.781 333.37 246.571 332.434 248.151 331.537L261.985 323.794C263.236 323.196 264.158 323.196 264.75 323.794C265.41 324.318 265.738 325.215 265.738 326.488V331.76C268.506 326.15 273.215 323.345 279.869 323.345C284.808 323.345 289.057 325.177 292.614 328.844C296.172 332.509 298.213 338.455 298.739 346.686L300.024 366.097Z" fill="#FF6C46"/>
<path d="M357.48 379.449C347.863 379.449 339.794 375.261 333.273 366.882C326.817 358.505 323.59 348.705 323.59 337.484C323.59 325.964 326.619 316.463 332.679 308.983C338.74 301.427 346.677 297.649 356.492 297.649C364.264 297.649 370.983 299.781 376.647 304.046C382.313 308.234 385.146 313.246 385.146 319.082C385.146 321.699 384.388 323.832 382.873 325.478C381.424 327.124 379.447 327.947 376.944 327.947C374.705 327.947 372.696 327.198 370.918 325.701C369.138 324.131 367.658 322.261 366.472 320.091C365.351 317.922 364.199 315.752 363.013 313.583C361.827 311.339 360.378 309.468 358.666 307.973C357.019 306.402 355.108 305.615 352.935 305.615C349.641 305.615 346.81 307.373 344.438 310.889C342.132 314.406 340.98 319.156 340.98 325.141C340.98 335.687 343.219 344.366 347.699 351.173C352.177 357.907 357.348 361.272 363.211 361.272C365.385 361.272 367.361 360.897 369.138 360.15C370.983 359.402 372.597 358.354 373.981 357.008C375.43 355.587 376.517 354.352 377.241 353.305C378.031 352.257 378.92 350.948 379.908 349.377C380.83 348.107 381.984 347.695 383.366 348.143C384.75 348.518 385.409 349.602 385.342 351.398C385.079 359.177 382.543 365.798 377.734 371.259C372.993 376.72 366.24 379.449 357.48 379.449Z" fill="#FF6C46"/>
<path d="M435.524 366.097C435.722 367.891 436.084 369.351 436.611 370.472C437.203 371.52 437.763 372.194 438.29 372.493C438.884 372.792 439.41 373.166 439.871 373.615C440.333 374.065 440.562 374.625 440.562 375.299C440.562 377.768 436.841 379.002 429.397 379.002C426.368 379.002 424.095 378.591 422.581 377.768C421.132 376.945 420.209 375.56 419.813 373.615C417.311 377.505 413.128 379.45 407.264 379.45C401.733 379.45 397.22 377.991 393.729 375.074C390.304 372.156 388.59 367.93 388.59 362.394C388.59 357.008 390.304 352.819 393.729 349.827C397.154 346.76 401.371 345.227 406.376 345.227C410.262 345.227 413.589 346.162 416.355 348.03V347.695C415.696 340.29 414.939 335.276 414.082 332.659C413.292 330.04 411.711 328.731 409.341 328.731C407.825 328.731 406.607 329.516 405.685 331.088C404.762 332.659 404.071 334.379 403.61 336.25C403.214 338.12 402.424 339.84 401.238 341.411C400.052 342.981 398.471 343.768 396.495 343.768C394.454 343.768 392.773 343.093 391.457 341.747C390.205 340.402 389.58 338.644 389.58 336.474C389.58 332.135 391.49 328.88 395.309 326.712C399.13 324.467 403.808 323.345 409.341 323.345C415.927 323.345 421.362 325.402 425.644 329.516C429.991 333.556 432.559 339.055 433.35 346.011L435.524 366.097ZM412.7 373.728C414.215 373.728 415.433 372.905 416.355 371.259C417.343 369.613 417.838 367.743 417.838 365.648L417.442 360.486C416.783 354.278 414.742 351.173 411.317 351.173C409.8 351.173 408.583 351.884 407.66 353.305C406.738 354.651 406.277 356.484 406.277 358.804C406.277 362.992 406.837 366.547 407.957 369.463C409.143 372.307 410.723 373.728 412.7 373.728Z" fill="#FF6C46"/>
<path d="M474.629 323.345C477.462 323.345 479.701 324.392 481.348 326.488C483.061 328.581 483.916 331.238 483.916 334.453C483.916 341.486 481.38 345.002 476.308 345.002C474.267 345.002 472.719 344.478 471.666 343.43C470.61 342.309 469.985 341.074 469.787 339.728C469.656 338.381 469.326 337.185 468.799 336.137C468.272 335.015 467.482 334.453 466.427 334.453C463.99 334.453 462.773 338.044 462.773 345.227V366.097C462.773 367.968 463.628 369.838 465.341 371.707C467.12 373.503 468.009 374.85 468.009 375.747V376.196C468.009 377.617 467.219 378.328 465.637 378.328H444.394C442.814 378.328 442.024 377.617 442.024 376.196V375.747C442.024 374.85 442.681 373.503 444 371.707C445.316 369.838 445.975 367.968 445.975 366.097V343.768C445.975 342.27 445.58 341 444.79 339.952C444 338.905 443.208 338.008 442.418 337.259C441.628 336.51 441.232 335.688 441.232 334.79V334.453C441.232 333.183 441.99 332.097 443.505 331.2L457.438 323.794C458.754 323.27 459.677 323.232 460.203 323.682C460.73 324.131 460.993 324.99 460.993 326.263V334.453C463.234 327.048 467.778 323.345 474.629 323.345Z" fill="#FF6C46"/>
<path d="M524.846 360.598C525.571 359.775 526.361 359.552 527.218 359.926C528.139 360.225 528.568 360.973 528.501 362.17C528.37 365.911 526.46 369.726 522.772 373.615C519.082 377.505 514.307 379.45 508.445 379.45C501.265 379.45 495.401 376.832 490.857 371.596C486.312 366.358 484.04 359.514 484.04 351.061C484.04 342.981 486.411 336.362 491.153 331.2C495.961 325.964 501.692 323.345 508.346 323.345C514.34 323.345 518.983 324.916 522.277 328.057C525.571 331.2 527.218 334.752 527.218 338.718C527.218 341.859 525.933 344.179 523.364 345.674L503.702 358.242C506.402 363.105 510.157 365.535 514.966 365.535C517.007 365.535 518.917 365.088 520.695 364.189C522.54 363.217 523.924 362.021 524.846 360.598ZM506.566 328.844C504.591 328.844 502.977 329.966 501.726 332.21C500.54 334.453 499.946 337.259 499.946 340.625C499.946 345.114 500.441 349.042 501.429 352.408L510.619 346.124C512.331 344.777 513.186 342.871 513.186 340.402C513.186 337.933 512.626 335.389 511.507 332.771C510.452 330.152 508.807 328.844 506.566 328.844Z" fill="#FF6C46"/>
</svg>
