<svg width="742" height="576" viewBox="0 0 742 576" fill="none" xmlns="http://www.w3.org/2000/svg">
<mask id="mask0" mask-type="alpha" maskUnits="userSpaceOnUse" x="0" y="1" width="741" height="575">
<path d="M740.826 1.27637H0.588637V576H740.826V1.27637Z" fill="#C4C4C4"/>
</mask>
<g mask="url(#mask0)">
<path d="M740.826 1.27637H0.588637V576H740.826V1.27637Z" fill="#FF6C46"/>
<path d="M347.564 73.5076C348.777 66.8625 351.29 60.6146 354.917 55.2297C358.546 49.8448 363.194 45.4618 368.517 42.4072C386.862 31.6829 407.656 42.1425 413.257 53.1314C418.858 64.1204 417.966 69.4962 427.138 73.5076C436.312 77.5187 443.148 69.2179 459.404 79.7053C475.659 90.1927 482.716 101.989 482.007 122.073C481.297 142.157 475.181 144.859 479.658 154.775C484.135 164.692 495.668 162.282 504.609 177.561C513.55 192.839 513.085 208.661 506.737 222.129C500.39 235.596 503.203 240.891 510.26 246.53C517.317 252.172 530.979 249.468 536.397 266.628C541.815 283.788 537.107 292.644 532.165 300.68C527.224 308.716 526.98 316.238 531.224 322.129C535.468 328.021 539.933 336.615 530.281 347.603C520.632 358.591 519.213 361.281 522.271 368.494C525.329 375.709 529.806 392.896 518.735 400.667L300.12 321.781C300.12 321.781 283.169 309.316 288.465 294.832C293.761 280.346 300.12 272.31 293.761 261.406C287.401 250.5 269.397 248.132 263.392 231.237C257.386 214.344 273.983 203.089 270.449 190.625C266.914 178.16 252.701 174.19 254.206 154.079C255.625 135.973 265.862 126.335 276.454 120.652C287.046 114.97 287.217 104.984 290.58 86.878C294.47 65.9867 318.834 53.8975 330.135 60.332C336.447 63.7954 342.312 68.2286 347.564 73.5076Z" fill="#3A4E5B"/>
<path d="M335.784 82.4908C325.9 81.697 314.99 78.8696 308.949 89.3293C302.907 99.7888 307.53 107.825 300.473 119.496C293.416 131.168 285.637 130.75 277.161 140.388C268.685 150.026 267.975 161.711 274.336 170.555C280.696 179.399 288.462 191.864 282.811 205.945C277.161 220.026 276.451 226.057 288.816 233.69C301.182 241.322 316.716 257.825 308.594 281.544" stroke="#201C33" stroke-linecap="round" stroke-linejoin="round"/>
<path d="M355.915 76.4597C360.159 67.6156 378.519 50.7215 392.291 59.9694C406.063 69.2173 400.766 83.2982 419.198 90.1366C437.63 96.9751 449.213 88.521 460.514 104.217C471.815 119.914 463.339 132.365 463.339 147.24C463.339 162.115 467.583 171.78 477.111 179.009C486.639 186.237 496.89 193.493 492.656 209.65C488.425 225.806 483.472 243.423 491.948 255.096C500.423 266.766 518.721 264.677 520.556 279.149C522.391 293.619 514.55 294.468 513.131 310.109C511.712 325.751 524.139 327.812 520.556 337.867" stroke="#201C33" stroke-linecap="round" stroke-linejoin="round"/>
<path d="M360.161 89.7329C368.282 96.5715 371.462 96.1674 384.523 96.5715C397.587 96.9753 403.946 105.012 407.836 113.466C411.725 121.92 423.737 125.931 425.497 135.987C427.258 146.042 420.545 159.664 426.195 170.973C431.846 182.282 448.101 188.257 448.101 210.388C448.101 232.519 435.025 239.732 437.85 256.627C440.676 273.522 461.163 284.775 457.273 304.887C453.383 324.998 445.618 335.848 445.618 335.848" stroke="#201C33" stroke-linecap="round" stroke-linejoin="round"/>
<path d="M419.598 188.535C425.836 201.529 436.44 205.555 432.196 218.021C427.952 230.486 420.185 243.355 423.01 260.249C425.836 277.142 442.445 287.992 437.493 300.457C434.052 308.902 430.159 317.097 425.836 324.998" stroke="#201C33" stroke-linecap="round" stroke-linejoin="round"/>
<path d="M424.077 108.229C435.734 110.248 446.68 117.087 444.87 135.179C443.06 153.271 439.574 160.917 448.746 170.973C457.92 181.029 473.821 197.909 469.233 215.207C464.647 232.505 455.461 245.848 460.049 259.037" stroke="#201C33" stroke-linecap="round" stroke-linejoin="round"/>
<path d="M373.221 79.7051C379.58 77.6995 391.566 80.1089 394.758 86.1396" stroke="#201C33" stroke-linecap="round" stroke-linejoin="round"/>
<path d="M331.905 99.3848C323.075 100.596 319.185 108.633 317.424 121.098C315.662 133.563 300.827 144.775 295.531 146.432" stroke="#201C33" stroke-linecap="round" stroke-linejoin="round"/>
<path d="M300.471 197.909C298.355 207.561 295.873 218.424 301.878 222.448C307.882 226.474 317.068 232.102 318.829 241.35" stroke="#201C33" stroke-linecap="round" stroke-linejoin="round"/>
<path d="M408.89 209.232C413.844 216.879 414.54 226.92 409.954 238.187" stroke="#201C33" stroke-linecap="round" stroke-linejoin="round"/>
<path d="M409.251 272.715C414.144 283.982 425.152 298.049 413.849 316.545" stroke="#201C33" stroke-linecap="round" stroke-linejoin="round"/>
<path d="M301.525 298.049C297.293 308.913 312.534 319.371 312.534 319.371" stroke="#201C33" stroke-linecap="round" stroke-linejoin="round"/>
<path d="M475.996 255.429C475.641 266.278 483.407 279.552 491.897 283.982C500.385 288.411 498.256 297.24 494.722 306.891C491.186 316.545 495.076 328.215 500.727 337.867C506.377 347.518 500.016 353.953 499.662 359.984C499.308 366.015 501.779 376.878 501.779 376.878" stroke="#201C33" stroke-linecap="round" stroke-linejoin="round"/>
<path d="M467.523 281.558C474.226 291.209 479.877 303.674 475.645 312.533C471.411 321.392 476.695 333.034 479.877 341.084C483.056 349.134 477.748 358.368 477.748 358.368" stroke="#201C33" stroke-linecap="round" stroke-linejoin="round"/>
<path d="M462.211 322.979C460.095 329.022 469.281 338.299 466.101 346.309" stroke="#201C33" stroke-linecap="round" stroke-linejoin="round"/>
<path d="M318.475 317.352C304.067 324.19 278.382 339.469 278.382 339.469C278.382 339.469 217.875 374.065 199.517 424.329C181.159 474.594 177.965 499.135 177.965 499.135C177.965 499.135 194.159 515.221 224.896 525.667L218.06 782.925C218.06 782.925 189.806 888.021 171.973 975.961C154.14 1063.9 143.659 1160.41 143.659 1160.41C143.659 1160.41 230.302 1190.43 374.395 1188.34C518.487 1186.26 563.691 1155.06 563.691 1155.06C563.691 1155.06 551.461 1006.03 541.089 922.341C530.717 838.648 505.302 737.882 505.302 737.882L503.43 525.543L560.915 499.803C560.915 499.803 552.353 434.86 523.195 395.778C494.036 356.699 426.669 320.166 409.253 314.273C391.836 308.383 318.475 317.352 318.475 317.352Z" fill="#64D0FF"/>
<path d="M414.854 380.222C414.633 381.28 414.413 382.338 414.193 383.439C406.856 418.258 370.859 516.698 366.164 516.154C361.467 515.612 311.527 409.986 304.703 383.174C304.532 382.496 304.373 381.814 304.225 381.127C340.76 383.981 394.245 381.404 414.854 380.222Z" fill="#C7D5D1"/>
<path d="M284.498 339.469C279.313 348.049 273.661 398.454 273.661 398.454L303.333 405.96L283.557 426.85C292.02 447.749 302.949 467.232 316.041 484.761C329.374 502.425 345.308 517.304 363.131 528.732" stroke="#201C33" stroke-linecap="round" stroke-linejoin="round"/>
<path d="M436.09 329.817C441.74 345.903 445.031 398.452 445.031 398.452L416.777 404.358L436.553 418.828C436.553 418.828 427.136 454.219 411.126 478.355C395.116 502.493 355.097 539.483 355.097 539.483C355.097 539.483 356.98 701.42 358.864 759.861C360.748 818.301 357.885 1187.76 357.885 1187.76" stroke="#201C33" stroke-linecap="round" stroke-linejoin="round"/>
<path d="M185.095 505.696C185.095 505.696 178.087 590.416 194.989 681.572C211.893 772.729 235.951 844.526 250.029 891.768C264.106 939.01 282.05 995.794 284.496 1008.13C286.943 1020.47 300.029 1063.84 304.273 1068.72C308.517 1073.59 322.167 1068.19 322.167 1068.19C322.167 1068.19 326.875 1073.55 338.178 1071.94C349.478 1070.32 354.651 1066.05 354.651 1066.05C354.651 1066.05 358.419 1074.08 365.011 1070.86C371.605 1067.65 365.954 963.092 365.954 963.092C365.954 963.092 322.167 736.266 319.342 718.035C316.517 699.804 286.844 524.441 286.844 524.441C286.844 524.441 264.681 526.071 233.125 519.106C201.57 512.144 185.095 505.696 185.095 505.696Z" fill="#F7E5DD"/>
<path d="M421.715 331.698C421.715 331.698 421.507 347.547 414.854 380.222C394.243 381.404 340.745 383.981 304.225 381.127C298.379 355.109 307.771 331.698 307.771 331.698C318.131 326.879 320.248 281.837 323.537 257.701C326.827 233.563 324.76 203.021 324.76 203.021C323.819 201.405 319.109 189.872 319.109 189.872C315.576 190.402 294.391 189.872 294.391 170.847C294.391 151.822 310.181 150.457 310.181 150.457L314.192 168.424L316.296 148.048C316.296 148.048 317.703 150.457 322.878 146.432C328.05 142.407 331.598 135.457 331.133 129.023C330.668 122.588 331.598 116.948 340.537 112.379C343.142 111.079 345.474 109.165 347.383 106.765C349.29 104.364 350.73 101.531 351.608 98.4517C353.955 106.223 366.444 112.379 374.687 110.513C382.93 108.647 393.29 111.585 395.87 118.87C398.452 126.154 404.053 131.432 410.474 136.808C416.896 142.185 412.836 147.268 411.893 161.223C410.952 175.179 419.66 188.563 419.66 188.563C417.231 189.165 414.709 189.069 412.321 188.285C410.382 193.797 407.501 198.815 403.845 203.049C403.6 211.892 404.311 282.672 408.738 305.194C413.165 327.714 421.715 331.698 421.715 331.698Z" fill="#F7E5DD"/>
<path d="M340.735 162.714C341.87 162.714 342.79 161.186 342.79 159.301C342.79 157.417 341.87 155.889 340.735 155.889C339.6 155.889 338.68 157.417 338.68 159.301C338.68 161.186 339.6 162.714 340.735 162.714Z" fill="#100C27"/>
<path d="M387.347 162.519C385.99 162.519 385.292 161.377 385.292 159.107C385.292 156.836 385.99 155.694 387.347 155.694C388.706 155.694 389.402 156.836 389.402 159.107C389.402 161.377 388.706 162.519 387.347 162.519Z" fill="#100C27"/>
<path d="M330.842 142.213C335.967 139.427 347.268 138.995 352.038 142.017" stroke="#3A4E5B" stroke-linecap="round" stroke-linejoin="round"/>
<path d="M376.756 141.209C385.232 137.184 394.943 139.608 398.477 141.015" stroke="#3A4E5B" stroke-linecap="round" stroke-linejoin="round"/>
<path d="M362.27 153.076C361.745 157.839 358.601 168.786 357.378 173.02L366.21 174.789" stroke="#FF6C46" stroke-linecap="round" stroke-linejoin="round"/>
<path d="M350.543 186.544C352.182 180.973 358.798 183.508 363.3 184.524C367.801 185.541 372.766 180.43 376.582 185.597C379.592 189.664 371.983 197.087 363.936 196.739C356.243 196.293 349.198 191.349 350.543 186.544Z" fill="white" stroke="#FF6C46" stroke-linecap="round" stroke-linejoin="round"/>
<path d="M325.902 205.75C328.348 211.181 346.56 228.271 366.509 226.864C386.457 225.457 402.358 205.75 402.358 205.75" stroke="#201C33" stroke-linecap="round" stroke-linejoin="round"/>
<path d="M323.953 149.259C323.953 149.259 328.368 146.237 340.733 145.833C352.769 145.443 357.857 149.259 357.857 149.259C357.857 149.259 359.153 165.276 353.967 171.168C348.782 177.059 330.068 175.805 326.082 169.357C322.093 162.908 323.953 149.259 323.953 149.259Z" stroke="#E7BE76" stroke-linecap="round" stroke-linejoin="round"/>
<path d="M405.581 149.259C405.581 149.259 401.166 146.237 388.801 145.833C376.767 145.443 371.679 149.259 371.679 149.259C371.679 149.259 370.381 165.276 375.556 171.168C380.729 177.059 399.467 175.805 403.466 169.357C407.465 162.908 405.581 149.259 405.581 149.259Z" stroke="#E7BE76" stroke-linecap="round" stroke-linejoin="round"/>
<path d="M357.882 149.26C362.468 149.051 370.344 148.647 371.714 149.26" stroke="#E7BE76" stroke-linecap="round" stroke-linejoin="round"/>
<path d="M405.581 149.259C410.474 148.452 413.287 148.243 413.287 148.243" stroke="#E7BE76" stroke-linecap="round" stroke-linejoin="round"/>
<path d="M323.431 149.26C319.37 149.051 312.826 148.048 308.24 148.856" stroke="#E7BE76" stroke-linecap="round" stroke-linejoin="round"/>
<path d="M431.844 521.21C431.844 521.21 469.76 520.778 496.826 516.921C516.351 513.928 535.594 508.903 554.311 501.907C554.311 501.907 549.603 581.796 524.175 692.256C498.747 802.715 459.67 923.9 446.485 969.484C433.3 1015.07 417.289 1055.84 406.452 1063.86C395.616 1071.88 389.941 1074.14 384.791 1071.35C379.643 1068.57 373.258 1070.14 367.253 1068.57C361.246 1066.99 362.36 1063.75 356.661 1063.34C350.961 1062.94 341.47 1068.57 336.174 1067.77C330.877 1066.98 323.82 1064.15 324.873 1057.31C325.925 1050.47 329.471 1025.14 329.471 1025.14C329.471 1025.14 316.018 1038.01 302.269 1035.6C288.522 1033.19 282.138 1023.52 290.259 1015.08C298.381 1006.64 313.216 996.978 323.466 980.906C329.778 970.975 346.068 947.48 346.068 947.48L396.092 733.537L431.844 521.21Z" fill="#F7E5DD"/>
</g>
</svg>
