<svg width="532" height="568" viewBox="0 0 532 568" fill="none" xmlns="http://www.w3.org/2000/svg">
<mask id="mask0" mask-type="alpha" maskUnits="userSpaceOnUse" x="0" y="0" width="532" height="614">
<path d="M531.577 0.787109H0.464844V613.898H531.577V0.787109Z" fill="#C4C4C4"/>
</mask>
<g mask="url(#mask0)">
<path d="M215.607 244.099C215.607 244.099 151.833 256.355 106.282 301.014C60.7317 345.674 23.9355 405.167 6.85281 448.57L39.1024 466.154L121.349 703.628L102.774 715.718C102.774 715.718 114.816 738.661 119.347 750.027C123.878 761.393 123.571 773.714 123.571 773.714C123.571 773.714 167.278 776.934 250.907 759.151C334.536 741.369 415.481 715.985 415.481 715.985L399.527 470.244C399.527 470.244 432.859 457.736 460.146 443.871C487.434 430.005 522.371 408.464 522.371 408.464C522.371 408.464 500.801 347.561 442.569 300.496C384.337 253.431 340.804 236.436 299.209 234.487C257.614 232.539 215.607 244.099 215.607 244.099Z" fill="#F6B60D"/>
<path d="M137.038 493.386C146.831 464.928 184.591 357.126 189.566 340.269" stroke="#201C33" stroke-width="2" stroke-linecap="round" stroke-linejoin="round"/>
<path d="M186.254 379.76C194.976 372.377 196.045 359.349 188.644 350.66C181.242 341.972 168.172 340.914 159.451 348.297C150.73 355.679 149.66 368.708 157.062 377.396C164.463 386.085 177.533 387.143 186.254 379.76Z" fill="#127B75"/>
<path d="M172.591 363.619C172.591 363.619 165.746 308.12 178.196 266.211C190.646 224.303 225.572 214.211 270.33 216.99C315.088 219.768 339.973 250.137 343.324 278.866C346.674 307.594 345.18 322.53 345.18 322.53" stroke="#127B7B" stroke-width="2" stroke-linecap="round" stroke-linejoin="round"/>
<path d="M180.564 364.629C180.446 366.15 179.879 367.602 178.934 368.801C177.988 370.001 176.707 370.894 175.253 371.369C173.799 371.843 172.236 371.877 170.763 371.466C169.29 371.055 167.972 370.217 166.977 369.06C165.982 367.902 165.353 366.476 165.172 364.962C164.99 363.448 165.262 361.914 165.955 360.554C166.648 359.194 167.73 358.069 169.064 357.321C170.398 356.573 171.924 356.236 173.449 356.353C175.494 356.51 177.393 357.47 178.727 359.022C180.061 360.574 180.722 362.591 180.564 364.629Z" fill="#F8E3FC"/>
<path d="M283 383.394C278.567 396.065 258.989 441.625 271.186 455.137C280.251 465.153 290.683 466.117 290.683 466.117" stroke="#201C33" stroke-width="2" stroke-linecap="round" stroke-linejoin="round"/>
<path d="M300.726 469.998C321.006 477.277 329.893 464.282 336.357 447.613C342.821 430.944 351.011 407.757 351.011 407.757" stroke="#201C33" stroke-width="2" stroke-linecap="round" stroke-linejoin="round"/>
<path d="M281.496 386.959C287.227 370.224 304.658 313.884 345.072 322.871C387.832 332.353 350.974 408.484 350.974 408.484" stroke="#127B7B" stroke-width="2" stroke-linecap="round" stroke-linejoin="round"/>
<path d="M286.187 474.578L276.176 465.358C275.547 464.964 280.346 457.011 280.991 457.397L293.83 461.925C297.007 463.826 289.352 476.48 286.187 474.578Z" fill="#64D0FF"/>
<path d="M297.882 462.836L310.776 467.259C311.524 467.352 310.326 476.571 309.577 476.472L295.977 477.487C292.316 477.017 294.221 462.365 297.882 462.836Z" fill="#64D0FF"/>
<path d="M243.841 39.5195C243.841 39.5195 219.705 34.6338 207.799 61.6199C195.892 88.6061 207.402 112.784 203 135.488C198.599 158.192 181.4 181.776 182.623 208.209C183.847 234.643 192.206 250.227 192.206 250.227L215.608 244.099L287.108 270.049C287.108 270.049 291.994 331.849 305.802 331.844C319.611 331.839 322.405 295.518 327.947 270.757C333.488 245.995 329.785 224.373 333.391 206.986C336.998 189.6 335.847 167.099 335.346 151.44C334.844 135.78 324.104 109.25 325.598 97.3059C327.093 85.3614 330.058 61.1625 313.773 42.0676C297.487 22.9726 275.031 24.2584 267.167 25.5063C257.872 27.0081 249.516 32.0282 243.841 39.5195Z" fill="#201C33"/>
<path d="M217.093 97.1159C215.166 104.508 213.732 117.094 217.529 132.794C221.325 148.494 225.935 153.786 225.935 153.786C225.935 153.786 226.569 172.896 224.742 191.421C222.916 209.946 215.608 244.099 215.608 244.099C215.608 244.099 257.67 309.597 262.882 309.102C267.443 308.668 287.124 270.095 287.124 270.095C287.124 270.095 287.419 231.721 289.375 207.288C291.331 182.855 297.53 158.173 297.53 158.173C297.53 158.173 306.536 145.685 307.504 135.104C308.473 124.523 308.201 100.956 306.501 89.9742C304.802 78.9929 293.712 69.6106 284.466 69.1288C275.558 68.6677 264.203 63.5218 258.385 61.124C252.567 58.7262 247.712 52.5854 247.712 52.5854C247.712 52.5854 242.398 65.8706 233.855 76.5177C225.312 87.1649 217.093 97.1159 217.093 97.1159Z" fill="#E9C4B4"/>
<path d="M210.948 94.7493C210.948 94.7493 194.113 94.0581 191.966 112.937C190.407 126.631 197.864 136.953 213.425 138.101C213.425 138.101 211.075 127.182 210.533 118.058C209.991 108.933 210.948 94.7493 210.948 94.7493Z" fill="#E9C4B4"/>
<path d="M311.127 93.7514C311.127 93.7514 311.242 101.933 311.437 114.364C311.596 124.562 310.106 138.414 310.106 138.414C310.106 138.414 326.972 139.432 332.967 126.412C338.963 113.392 337.344 99.7821 329.972 94.8936C322.6 90.005 311.127 93.7514 311.127 93.7514Z" fill="#E9C4B4"/>
<path d="M239.368 108.362C238.073 108.485 237.32 107.585 237.14 105.694C236.961 103.803 237.531 102.777 238.825 102.654C240.119 102.531 240.873 103.431 241.052 105.322C241.232 107.213 240.662 108.239 239.368 108.362Z" fill="#201C33"/>
<path d="M284.569 106.529C283.269 106.652 282.521 105.752 282.342 103.861C282.162 101.969 282.726 100.944 284.026 100.82C285.326 100.697 286.074 101.598 286.253 103.489C286.433 105.38 285.863 106.406 284.569 106.529Z" fill="#201C33"/>
<path d="M228.277 88.515C235.402 83.9037 246.113 84.1992 252.064 86.2545" stroke="#201C33" stroke-width="2" stroke-linecap="round" stroke-linejoin="round"/>
<path d="M273.399 85.8644C279.444 82.0154 287.636 81.7257 293.469 84.287" stroke="#201C33" stroke-width="2" stroke-linecap="round" stroke-linejoin="round"/>
<path d="M257.539 104.068C256.01 108.87 253.908 113.471 251.278 117.773L259.134 122.598" stroke="#201C33" stroke-width="2" stroke-linecap="round" stroke-linejoin="round"/>
<path d="M322.258 103.507C320.156 109.113 315.136 128.919 315.136 128.919" stroke="#201C33" stroke-width="2" stroke-linecap="round" stroke-linejoin="round"/>
<path d="M201.229 106.65C203.78 110.996 208.038 128.124 208.038 128.124" stroke="#201C33" stroke-width="2" stroke-linecap="round" stroke-linejoin="round"/>
<path d="M232.579 129.255C229.195 129.771 227.096 127.521 226.332 122.587C225.567 117.654 226.917 114.875 230.277 114.356C233.637 113.836 235.759 116.09 236.518 121.024C237.276 125.958 235.963 128.739 232.579 129.255Z" fill="#F8D0CD"/>
<path d="M287.95 127.68C284.582 127.064 283.334 124.244 284.25 119.333C285.166 114.423 287.333 112.232 290.722 112.829C294.111 113.425 295.338 116.26 294.423 121.176C293.507 126.092 291.315 128.268 287.95 127.68Z" fill="#F8D0CD"/>
<path d="M245.282 133.585C247.136 126.795 254.676 129.9 259.819 131.114C264.963 132.327 270.575 126.157 274.949 132.391C278.368 137.278 269.715 146.263 260.564 145.79C251.722 145.335 243.705 139.377 245.282 133.585Z" fill="white" stroke="#F3A8A3" stroke-width="2" stroke-linecap="round" stroke-linejoin="round"/>
<path d="M230.689 162.345C235.111 167.337 249.757 174.462 264.513 174.043C275.944 173.831 286.837 169.147 294.839 161.002" stroke="#201C33" stroke-width="2" stroke-linecap="round" stroke-linejoin="round"/>
<path d="M235.03 47.1533C227.528 48.6141 211.438 58.247 208.22 86.5689" stroke="#127B75" stroke-width="2" stroke-linecap="round" stroke-linejoin="round"/>
<path d="M234.907 56.5054C230.624 63.0433 220.17 77.5825 218.36 81.9183" stroke="#127B75" stroke-width="2" stroke-linecap="round" stroke-linejoin="round"/>
<path d="M252.742 46.7007C260.43 52.3602 282.272 56.4274 293.97 62.4478" stroke="#127B75" stroke-width="2" stroke-linecap="round" stroke-linejoin="round"/>
<path d="M253.852 40.2231C264.163 39.7321 283.456 45.5197 287.825 50.0222" stroke="#127B75" stroke-width="2" stroke-linecap="round" stroke-linejoin="round"/>
<path d="M258.213 34.3846C270.536 31.7354 298.732 40.3638 306.385 61.2685C314.038 82.1732 312.909 88.2053 312.909 88.2053" stroke="#127B75" stroke-width="2" stroke-linecap="round" stroke-linejoin="round"/>
<path d="M287.205 33.1025C300.713 37.7083 314.238 50.1985 317.169 62.9474C318.98 71.0163 320.09 79.226 320.488 87.4856" stroke="#127B75" stroke-width="2" stroke-linecap="round" stroke-linejoin="round"/>
<path d="M206.95 143.464C204.928 155.948 190.842 179.154 189.839 196.953C188.836 214.752 197.712 246.1 197.712 246.1" stroke="#127B75" stroke-width="2" stroke-linecap="round" stroke-linejoin="round"/>
<path d="M212.25 147.63C212.06 156.006 209.768 178.592 207.98 195.965C206.192 213.338 204.805 235.113 204.858 243.453" stroke="#127B75" stroke-width="2" stroke-linecap="round" stroke-linejoin="round"/>
<path d="M204.504 167.048C201.611 178.136 196.718 207.112 199.325 226.776" stroke="#127B75" stroke-width="2" stroke-linecap="round" stroke-linejoin="round"/>
<path d="M218.76 158.814C218.5 171.619 213.619 221.484 212.571 231.171" stroke="#127B75" stroke-width="2" stroke-linecap="round" stroke-linejoin="round"/>
<path d="M303.771 158.11C302.656 174.924 296.067 220.811 295.95 241.894C295.787 273.89 304.274 313.885 304.274 313.885" stroke="#127B75" stroke-width="2" stroke-linecap="round" stroke-linejoin="round"/>
<path d="M312.739 143.494C312.571 152.108 312.206 184.588 308.075 208.574C303.943 232.56 305.675 274.175 305.675 274.175" stroke="#127B75" stroke-width="2" stroke-linecap="round" stroke-linejoin="round"/>
<path d="M320.696 144.21C321.714 154.926 320.334 189.711 318.272 201.71C316.209 213.708 313.662 228.444 313.836 245.878C314.009 263.312 310.055 291.71 308.854 297.23" stroke="#127B75" stroke-width="2" stroke-linecap="round" stroke-linejoin="round"/>
<path d="M328.215 143.001C329.618 155.159 329.049 193.312 326.077 206.127C323.105 218.942 322.579 239.146 323.178 248.188C323.777 257.23 320.603 278.169 317.936 286.29C315.268 294.412 312.389 318.768 307.406 323.417" stroke="#127B75" stroke-width="2" stroke-linecap="round" stroke-linejoin="round"/>
<path d="M435.726 314.91L395.092 503.276L309.271 534.371L291.97 529.154L329.341 354.514L435.726 314.91Z" fill="#127B7B"/>
<path d="M435.726 314.91L329.342 354.514L291.971 529.154L267.983 521.904L272.163 513.974L307.175 353.87C307.679 351.558 308.767 349.412 310.337 347.638C311.907 345.863 313.906 344.517 316.144 343.73L409.509 310.811C412.73 309.671 416.225 309.544 419.52 310.449L435.726 314.91Z" fill="white"/>
<path d="M429.262 313.557L322.44 351.977L283.892 524.986" stroke="#201C33" stroke-width="2" stroke-linecap="round" stroke-linejoin="round"/>
<path d="M421.362 310.869L314.539 349.289L275.991 522.292" stroke="#201C33" stroke-width="2" stroke-linecap="round" stroke-linejoin="round"/>
<path d="M509.723 415.531C509.723 415.531 530.029 483.898 509.347 525.676C488.665 567.454 449.734 592.103 401.246 609.52C351.65 627.343 316.643 625.758 286.83 616.464C258.466 607.622 242.871 589.834 237.521 578.546C232.17 567.257 230.818 552.969 233.548 547.12C233.548 547.12 233.062 535.04 236.987 531.386C236.987 531.386 237.77 518.862 242.768 516.113C242.768 516.113 244.355 505.15 253.375 499.705C262.394 494.26 271.611 494.367 275.38 495.976L272.157 513.98C272.157 513.98 279.557 519.167 285.666 521.213C291.776 523.259 300.831 525.343 308.74 525.251C308.74 525.251 294.983 515.416 292.362 505.176C289.362 493.44 290.034 484.095 296.38 478.25C302.726 472.405 309.014 472.791 310.989 476.532C312.963 480.273 318.195 493.545 324.167 497.565C330.139 501.586 346.955 505.559 357.292 503.593C367.629 501.627 399.877 481.195 399.877 481.195L402.381 469.49C402.381 469.49 426.764 459.635 448.832 449.67C470.9 439.704 509.723 415.531 509.723 415.531Z" fill="#E9C4B4"/>
<path d="M242.768 516.108C242.969 530.347 252.621 543.682 258.437 547.8" stroke="#201C33" stroke-width="2" stroke-linecap="round" stroke-linejoin="round"/>
<path d="M236.988 531.404C237.47 545.122 244.62 555.75 248.55 560.542" stroke="#201C33" stroke-width="2" stroke-linecap="round" stroke-linejoin="round"/>
<path d="M233.551 547.137C234.568 557.306 237.66 567.16 242.637 576.092" stroke="#201C33" stroke-width="2" stroke-linecap="round" stroke-linejoin="round"/>
<path d="M272.156 513.975C265.846 509.003 263.057 505.581 263.057 505.581" stroke="#201C33" stroke-width="2" stroke-linecap="round" stroke-linejoin="round"/>
<path d="M297.98 478.664C302.066 490.567 307.624 494.461 318.084 492.979" stroke="#201C33" stroke-width="2" stroke-linecap="round" stroke-linejoin="round"/>
<path d="M308.74 525.245C318.52 526.118 323.918 525.846 323.918 525.846" stroke="#201C33" stroke-width="2" stroke-linecap="round" stroke-linejoin="round"/>
<path d="M399.9 481.187C419.209 469.853 466.586 444.225 481.694 437.124" stroke="#201C33" stroke-width="2" stroke-linecap="round" stroke-linejoin="round"/>
<path d="M39.1036 466.154C39.1036 466.154 71.8525 478.608 92.0173 483.247C112.182 487.885 137.038 493.386 137.038 493.386L133.464 504.215L199.608 660.478L121.345 703.635C121.345 703.635 76.7317 640.699 54.442 592.992C32.1523 545.286 30.6201 515.295 31.7446 499.457C32.869 483.62 39.1036 466.154 39.1036 466.154Z" fill="#E9C4B4"/>
<path d="M133.462 504.215C126.405 509.473 105.206 507.883 105.206 507.883" stroke="#201C33" stroke-width="2" stroke-linecap="round" stroke-linejoin="round"/>
<path d="M363.044 404.728L388.077 394.811" stroke="#201C33" stroke-width="2" stroke-linecap="round" stroke-linejoin="round"/>
<path d="M361.61 417.321L386.643 407.403" stroke="#201C33" stroke-width="2" stroke-linecap="round" stroke-linejoin="round"/>
</g>
</svg>
