<svg width="479" height="450" viewBox="0 0 479 450" fill="none" xmlns="http://www.w3.org/2000/svg">
<path d="M351.611 225.956C403.101 225.956 444.841 184.21 444.841 132.714C444.841 81.2177 403.101 39.4717 351.611 39.4717C300.122 39.4717 258.381 81.2177 258.381 132.714C258.381 184.21 300.122 225.956 351.611 225.956Z" fill="#F6B60D"/>
<path d="M98.21 110.23C118.966 110.23 135.793 93.4016 135.793 72.6424C135.793 51.8833 118.966 35.0547 98.21 35.0547C77.4536 35.0547 60.6271 51.8833 60.6271 72.6424C60.6271 93.4016 77.4536 110.23 98.21 110.23Z" stroke="#C2ADE2" stroke-width="3"/>
<path d="M412.912 241.504C451.675 240.699 477.519 258.445 478.325 285.871C479.131 313.298 465.405 352.01 430.68 362.499C395.954 372.987 240.087 405.233 240.087 405.233L212.616 318.94L370.095 274.577L412.912 241.504Z" fill="#100C27"/>
<path d="M292.749 341.078C298.097 343.749 283.775 369.756 276.597 381.588C269.419 393.419 258.642 424.604 250.035 419.228C241.428 413.852 252.908 387.681 260.105 372.969C267.303 358.256 284.134 336.775 292.749 341.078Z" fill="#211D36"/>
<path d="M274.262 351.221C288.263 360.629 296.606 374.613 304.143 385.099C311.589 395.458 323.527 411.987 324.333 425.162C324.944 435.151 323.256 439.146 322.179 441.294C321.102 443.443 313.01 448.822 313.01 448.822L264.307 365.719L274.262 351.221Z" fill="#F7EAE1"/>
<path d="M266.982 359.271C276.403 367.07 297.131 392.611 303.323 402.005C309.516 411.398 318.665 428.621 319.475 435.616C320.285 442.61 318.936 446.639 313.011 448.787C307.086 450.935 297.67 444.754 291.749 435.078C285.827 425.401 275.321 415.717 268.865 408.456C263.426 402.351 249.214 385.067 249.214 385.067L266.982 359.271Z" fill="#E03FFF"/>
<path d="M295.82 440.598C301.429 446.967 308.332 450.519 313.011 448.801C318.936 446.654 320.27 442.621 319.475 435.631C319.2 433.249 317.985 429.59 316.267 425.428C304.091 427.912 299.163 435.448 295.82 440.598Z" fill="#E8DACF"/>
<path d="M293.131 427.855C295.679 424.341 299.511 421.491 301.822 420.857" stroke="white" stroke-width="2" stroke-linecap="round" stroke-linejoin="round"/>
<path d="M288.058 422.502C290.247 419.003 294.606 415.775 297.608 414.573" stroke="white" stroke-width="2" stroke-linecap="round" stroke-linejoin="round"/>
<path d="M283.083 415.177C285.46 411.85 288.577 409.026 292.103 407.446" stroke="white" stroke-width="2" stroke-linecap="round" stroke-linejoin="round"/>
<path d="M278.468 407.832C280.691 405.229 284.676 401.655 287.148 400.654" stroke="white" stroke-width="2" stroke-linecap="round" stroke-linejoin="round"/>
<path d="M272.975 401.062C274.155 399.219 277.559 395.128 280.748 393.564" stroke="white" stroke-width="2" stroke-linecap="round" stroke-linejoin="round"/>
<path d="M265.147 394.209C267.223 390.704 270.295 387.892 273.971 386.132" stroke="white" stroke-width="2" stroke-linecap="round" stroke-linejoin="round"/>
<path d="M258.665 389.456C259.964 386.174 264.067 381.161 267.421 379.764" stroke="white" stroke-width="2" stroke-linecap="round" stroke-linejoin="round"/>
<path d="M221.101 341.342C205.557 347.901 194.689 360.037 185.279 368.882C175.985 377.628 161.105 391.566 157.774 404.344C155.261 414.028 156.155 418.27 156.796 420.587C157.438 422.902 164.337 429.744 164.337 429.744L228.092 357.497L221.101 341.342Z" fill="#F7EAE1"/>
<path d="M226.686 350.647C215.947 356.501 190.708 377.608 182.827 385.659C174.946 393.71 162.664 408.854 160.533 415.562C158.401 422.27 158.95 426.486 164.352 429.728C169.754 432.972 180.187 428.703 187.854 420.335C195.521 411.967 207.681 404.47 215.413 398.587C221.907 393.626 239.186 379.383 239.186 379.383L226.686 350.647Z" fill="#E03FFF"/>
<path d="M182.811 424.963C176.087 430.14 168.634 432.3 164.348 429.728C158.95 426.485 158.4 422.268 160.528 415.561C161.253 413.271 163.145 409.918 165.632 406.163C177.127 410.933 180.515 419.266 182.811 424.963Z" fill="#E8DACF"/>
<path d="M187.903 412.968C186.077 409.034 182.86 405.501 180.717 404.439" stroke="white" stroke-width="2" stroke-linecap="round" stroke-linejoin="round"/>
<path d="M193.898 408.686C192.418 404.832 188.763 400.83 186.043 399.075" stroke="white" stroke-width="2" stroke-linecap="round" stroke-linejoin="round"/>
<path d="M200.185 402.443C198.488 398.723 195.982 395.358 192.811 393.134" stroke="white" stroke-width="2" stroke-linecap="round" stroke-linejoin="round"/>
<path d="M206.123 396.118C204.437 393.138 201.214 388.868 198.975 387.414" stroke="white" stroke-width="2" stroke-linecap="round" stroke-linejoin="round"/>
<path d="M212.807 390.519C212.001 388.486 209.426 383.815 206.619 381.675" stroke="white" stroke-width="2" stroke-linecap="round" stroke-linejoin="round"/>
<path d="M221.807 385.296C220.44 381.458 217.966 378.111 214.694 375.678" stroke="white" stroke-width="2" stroke-linecap="round" stroke-linejoin="round"/>
<path d="M229.081 381.87C228.436 378.397 225.368 372.693 222.342 370.683" stroke="white" stroke-width="2" stroke-linecap="round" stroke-linejoin="round"/>
<path d="M52.7151 214.886C77.7564 213.57 145.588 246.346 145.588 246.346C145.588 246.346 202.928 289.08 219.08 298.775C235.232 308.47 292.749 341.078 292.749 341.078C292.749 341.078 279.829 343.943 260.086 379.794C248.625 400.582 250.035 419.228 250.035 419.228C250.035 419.228 192.966 398.796 170.353 390.191C149.48 382.248 55.118 347.149 29.2936 328.17C4.15304 309.711 -8.30456 279.773 7.04109 250.737C22.3867 221.701 37.3886 215.695 52.7151 214.886Z" fill="#292F44"/>
<path d="M276.597 98.7364C293.826 101.243 348.381 129.208 379.249 158.961C410.116 188.715 435.6 220.983 425.194 260.409C414.788 299.835 375.662 310.248 355.919 309.53C336.176 308.813 323.257 307.02 323.257 307.02L306.746 233.528L336.891 231.377L302.792 212.737L293.818 286.225L183.984 282.642L178.254 209.51L146.669 226.717L167.125 227.435L168.562 299.133C168.562 299.133 107.546 312.037 83.8571 292.681C60.1682 273.324 54.0597 249.661 63.3962 222.414C72.7327 195.167 97.491 163.983 129.455 141.035C161.418 118.089 210.553 100.156 233.524 98.0192C247.867 96.7517 262.304 96.9917 276.597 98.7364Z" fill="#E03FFF"/>
<path d="M239.628 19.5075C244.595 19.0268 245.091 13.7079 248.239 7.67933C252.548 -0.566069 262.688 -1.82138 266.195 3.01673C269.701 7.85484 269.427 13.2347 274.003 13.2347C278.579 13.2347 284.86 7.32066 291.679 9.83131C299.48 12.7006 296.075 20.5148 294.735 24.5288C293.395 28.5427 293.646 35.2924 296.607 35.819C299.567 36.3455 303.865 40.3977 302.26 45.232C300.656 50.0662 293.646 55.9842 294.185 56.255C294.724 56.5259 301.443 55.4461 301.989 58.407C302.536 61.3678 292.576 68.6212 292.576 68.6212C292.576 68.6212 298.23 74.8063 297.96 79.6443C297.688 84.4825 283.408 83.4103 283.408 83.4103C283.408 83.4103 250.299 84.7533 246.26 86.9053C242.223 89.0573 231.993 89.3244 227.954 86.3673C223.916 83.4102 224.184 75.6113 225.261 71.5782C226.338 67.5452 215.31 66.1983 216.387 60.0172C217.464 53.836 222.499 52.4891 221.681 48.1889C220.864 43.8888 215.409 34.6552 219.168 28.4702C222.927 22.2852 228.501 20.5835 239.628 19.5075Z" fill="#292F44"/>
<path d="M233.615 64.3215C235.385 61.1636 236.528 57.6941 236.981 54.1035C237.615 48.6014 235.835 41.5121 240.076 37.315C247.334 30.0655 267.802 26.6926 276.551 31.1301C283.213 34.5069 286.647 44.5722 286.509 53.0427C286.414 59.2507 288.53 62.2 288.53 62.2C288.53 62.2 290.685 55.477 294.185 56.2859C297.684 57.0949 298.49 65.1571 296.858 69.999C295.227 74.8409 291.763 79.9347 288.263 78.0269C288.263 78.0269 286.108 86.631 280.722 91.7362C280.722 91.7362 281.532 105.987 280.993 108.944C280.455 111.901 268.89 122.936 253.805 122.398C238.719 121.86 231.194 106.804 230.655 104.651C230.116 102.5 238.73 85.8297 238.73 85.8297C238.73 85.8297 235.766 81.7967 234.96 79.9156C234.96 79.9156 222.308 78.3017 223.117 68.3545C223.927 58.4074 233.615 64.3215 233.615 64.3215Z" fill="#F7EAE1"/>
<path d="M247.261 59.8261C246.279 59.849 245.76 59.1279 245.734 57.6932C245.706 56.2586 246.18 55.5107 247.162 55.4878C248.144 55.465 248.663 56.1822 248.69 57.6169C248.716 59.0516 248.262 59.7994 247.261 59.8261Z" fill="#303336"/>
<path d="M274.449 58.2128C273.467 58.2357 272.948 57.5184 272.92 56.0799C272.894 54.6415 273.364 53.8974 274.35 53.8746C275.335 53.8517 275.851 54.569 275.878 56.0075C275.904 57.4459 275.431 58.1861 274.449 58.2128Z" fill="#303336"/>
<path d="M242.093 48.3221C244.247 46.5746 247.746 45.2316 252.055 45.7695" stroke="#292F44" stroke-width="2" stroke-linecap="round" stroke-linejoin="round"/>
<path d="M267.535 44.4236C271.436 42.5426 275.612 43.3477 278.033 44.4236" stroke="#292F44" stroke-width="2" stroke-linecap="round" stroke-linejoin="round"/>
<path d="M260.67 52.8936C261.61 54.6411 265.514 56.9266 265.785 58.8077C266.056 60.6888 264.841 62.5736 264.841 62.5736" stroke="#E03FFF" stroke-width="2" stroke-linecap="round" stroke-linejoin="round"/>
<path d="M250.845 73.3269C250.707 72.2547 255.689 71.9838 263.36 71.3123C271.031 70.6407 275.073 69.5648 276.012 70.3699C276.952 71.1749 271.84 79.7828 264.17 80.0499C256.498 80.3169 250.845 73.3269 250.845 73.3269Z" fill="white" stroke="#E03FFF" stroke-width="2" stroke-linecap="round" stroke-linejoin="round"/>
<path d="M238.73 85.8291C245.19 93.8955 253.938 98.3327 264.57 97.9277C275.201 97.5237 280.733 91.7623 280.733 91.7623" stroke="#E03FFF" stroke-width="2" stroke-linecap="round" stroke-linejoin="round"/>
<path d="M227.424 67.8164C231.462 70.4872 232.134 73.7305 232.134 73.7305" stroke="#E03FFF" stroke-width="2" stroke-linecap="round" stroke-linejoin="round"/>
<path d="M292.959 61.6191C291.477 64.309 289.861 72.6422 289.861 72.6422" stroke="#E03FFF" stroke-width="2" stroke-linecap="round" stroke-linejoin="round"/>
<path d="M243.583 73.5965C241.452 73.7836 240.225 72.2916 239.954 69.1705C239.683 66.0494 240.626 64.3705 242.761 64.1836C244.897 63.9966 246.116 65.4923 246.391 68.6096C246.665 71.727 245.715 73.4134 243.583 73.5965Z" fill="#FE9074"/>
<path d="M281.116 70.3962C278.976 70.2626 277.991 68.6067 278.186 65.4817C278.381 62.3568 279.564 60.8306 281.704 60.9641C283.844 61.0977 284.825 62.7575 284.63 65.8823C284.435 69.0073 283.24 70.5144 281.116 70.3962Z" fill="#FE9074"/>
<path d="M306.745 233.53C319.668 236.758 331.511 250.021 332.947 265.435C334.384 280.851 323.256 307.025 323.256 307.025L275.504 304.514C275.504 304.514 252.189 278.344 256.136 265.077C260.081 251.811 269.777 243.569 278.033 238.906C286.288 234.244 306.745 233.53 306.745 233.53Z" fill="#F7EAE1"/>
<path d="M167.121 227.437C159.944 232.454 147.024 242.134 146.305 264.001C145.587 285.867 163.175 299.485 163.175 299.485H196.915L221.681 255.389C221.681 255.389 216.654 233.164 204.811 230.294C192.969 227.424 167.121 227.437 167.121 227.437Z" fill="#F7EAE1"/>
<path d="M306.386 281.208C301.362 281.208 290.953 284.795 290.953 284.795" stroke="#E03FFF" stroke-width="2" stroke-linecap="round" stroke-linejoin="round"/>
<path d="M303.158 256.113C295.622 257.189 285.929 264.717 285.929 264.717" stroke="#E03FFF" stroke-width="2" stroke-linecap="round" stroke-linejoin="round"/>
<path d="M182.915 273.321C187.942 273.321 203.376 279.773 205.889 283.36" stroke="#E03FFF" stroke-width="2" stroke-linecap="round" stroke-linejoin="round"/>
<path d="M185.427 249.303C191.158 249.661 205.529 258.982 205.529 258.982" stroke="#E03FFF" stroke-width="2" stroke-linecap="round" stroke-linejoin="round"/>
<path d="M294.971 245.2L197.258 241.247C194.729 241.144 192.595 243.11 192.492 245.636L189.972 307.767C189.87 310.294 191.837 312.425 194.367 312.527L292.079 316.481C294.609 316.584 296.743 314.619 296.845 312.092L299.366 249.961C299.468 247.435 297.5 245.303 294.971 245.2Z" fill="#414659"/>
<path d="M226.867 275.444C227.205 275.454 227.37 275.598 227.362 275.877L227.36 275.965C227.354 276.171 227.133 276.451 226.696 276.806C226.26 277.162 225.971 277.499 225.829 277.819L222.771 285.339C222.628 285.717 222.365 285.901 221.983 285.891L220.043 285.835C219.704 285.826 219.446 285.628 219.266 285.24L216.129 277.545C216.019 277.277 215.8 276.947 215.473 276.556C215.161 276.15 215.008 275.837 215.014 275.617L215.017 275.529C215.024 275.25 215.198 275.115 215.535 275.124L220.606 275.268C220.93 275.276 221.087 275.428 221.079 275.722L221.076 275.81C221.072 275.957 221.001 276.131 220.863 276.333C220.725 276.52 220.625 276.694 220.561 276.854C220.512 277.014 220.541 277.309 220.647 277.738L222.402 282.772L224.136 278.388C224.315 277.776 224.349 277.35 224.239 277.112C224.128 276.859 223.958 276.626 223.729 276.414C223.515 276.188 223.409 276.009 223.413 275.876L223.416 275.788C223.424 275.494 223.596 275.352 223.935 275.362L226.867 275.444Z" fill="#F4EEF5"/>
<path d="M229.946 274.23C229.196 274.209 228.593 273.986 228.133 273.562C227.675 273.123 227.455 272.587 227.473 271.956C227.49 271.324 227.741 270.809 228.222 270.411C228.705 269.998 229.321 269.802 230.07 269.824C230.805 269.844 231.402 270.074 231.86 270.514C232.319 270.939 232.539 271.466 232.521 272.098C232.503 272.729 232.253 273.251 231.771 273.665C231.29 274.062 230.681 274.251 229.946 274.23ZM227.252 286.039C226.899 286.029 226.726 285.885 226.735 285.606L226.737 285.518C226.742 285.341 226.897 285.074 227.201 284.715C227.505 284.356 227.663 283.993 227.673 283.626L227.791 279.44C227.802 279.057 227.666 278.686 227.382 278.325C227.098 277.95 226.958 277.696 226.962 277.564L226.964 277.476C226.969 277.299 227.143 277.135 227.486 276.984L230.86 275.447C231.172 275.323 231.416 275.316 231.589 275.424C231.763 275.531 231.846 275.703 231.84 275.937L231.619 283.737C231.609 284.104 231.76 284.476 232.073 284.852C232.401 285.229 232.562 285.505 232.557 285.682L232.555 285.77C232.547 286.049 232.359 286.183 231.992 286.173L227.252 286.039Z" fill="#F4EEF5"/>
<path d="M238.833 286.586C237.128 286.538 235.694 285.976 234.534 284.899C233.387 283.809 232.837 282.47 232.882 280.884C232.926 279.298 233.551 278.007 234.756 277.012C235.961 276.002 237.372 275.52 238.989 275.565C240.664 275.613 242.075 276.175 243.221 277.25C244.368 278.326 244.919 279.665 244.873 281.266C244.829 282.853 244.219 284.151 243.042 285.162C241.867 286.157 240.464 286.633 238.833 286.586ZM239.326 285.52C240.267 285.546 240.762 284.656 240.813 282.85C240.832 282.189 240.759 281.4 240.593 280.484C240.442 279.569 240.158 278.7 239.74 277.88C239.337 277.06 238.87 276.643 238.341 276.628C237.827 276.614 237.453 276.83 237.219 277.279C236.986 277.728 236.857 278.415 236.83 279.342C236.816 279.826 236.859 280.4 236.958 281.065C237.057 281.73 237.2 282.402 237.387 283.083C237.574 283.75 237.837 284.324 238.176 284.804C238.531 285.27 238.914 285.508 239.326 285.52Z" fill="#F4EEF5"/>
<path d="M245.516 286.555C245.179 286.545 245.014 286.4 245.021 286.122L245.024 286.034C245.029 285.857 245.176 285.597 245.465 285.252C245.769 284.893 245.927 284.53 245.937 284.162L246.221 274.094C246.232 273.712 246.095 273.341 245.811 272.98C245.542 272.605 245.41 272.343 245.414 272.197L245.417 272.109C245.421 271.947 245.588 271.783 245.916 271.616L249.291 270.079C249.603 269.956 249.846 269.956 250.019 270.078C250.208 270.186 250.299 270.35 250.292 270.571L249.905 284.275C249.895 284.642 250.046 285.014 250.36 285.391C250.673 285.752 250.827 286.021 250.822 286.197L250.82 286.285C250.811 286.564 250.631 286.699 250.279 286.689L245.516 286.555Z" fill="#F4EEF5"/>
<path d="M260.248 283.486C260.414 283.329 260.591 283.29 260.78 283.369C260.985 283.434 261.076 283.583 261.054 283.818C261.004 284.551 260.557 285.288 259.713 286.029C258.868 286.77 257.791 287.121 256.483 287.085C254.881 287.04 253.588 286.488 252.603 285.432C251.617 284.374 251.149 283.017 251.196 281.356C251.24 279.77 251.806 278.485 252.892 277.501C253.995 276.504 255.288 276.026 256.772 276.068C258.11 276.105 259.137 276.443 259.854 277.081C260.572 277.718 260.92 278.427 260.898 279.205C260.881 279.822 260.581 280.269 259.999 280.546L255.542 282.89C256.119 283.862 256.943 284.363 258.015 284.394C258.472 284.406 258.9 284.33 259.302 284.165C259.718 283.986 260.034 283.759 260.248 283.486ZM256.345 277.136C255.904 277.124 255.538 277.334 255.246 277.767C254.969 278.2 254.821 278.746 254.803 279.407C254.777 280.289 254.866 281.063 255.068 281.73L257.153 280.555C257.543 280.301 257.744 279.931 257.758 279.447C257.771 278.962 257.661 278.46 257.425 277.938C257.205 277.418 256.844 277.15 256.345 277.136Z" fill="#F4EEF5"/>
<path d="M265.814 287.348C264.698 287.316 263.826 286.939 263.199 286.216C262.587 285.493 262.299 284.477 262.336 283.171L262.484 277.949L261.646 277.925C261.498 277.922 261.375 277.874 261.274 277.783C261.189 277.677 261.149 277.551 261.152 277.404L261.167 276.919C261.176 276.582 261.35 276.418 261.688 276.427L262.107 276.438C262.783 276.458 263.369 276.276 263.865 275.893C264.362 275.495 264.693 274.961 264.859 274.29C264.943 273.91 265.148 273.724 265.471 273.734L265.978 273.748C266.375 273.759 266.568 273.956 266.556 274.337L266.494 276.563L268.765 276.627C268.912 276.631 269.027 276.686 269.113 276.791C269.214 276.882 269.262 277.001 269.257 277.148L269.244 277.633C269.239 277.779 269.185 277.903 269.079 278.003C268.988 278.088 268.869 278.129 268.723 278.125L266.451 278.061L266.302 283.349C266.292 283.716 266.379 284.012 266.564 284.238C266.75 284.449 266.982 284.559 267.261 284.567C267.893 284.584 268.385 284.327 268.739 283.792C268.845 283.663 268.966 283.593 269.098 283.582C269.231 283.556 269.34 283.581 269.427 283.657C269.528 283.734 269.576 283.838 269.572 283.97C269.547 284.896 269.192 285.702 268.511 286.388C267.845 287.06 266.946 287.38 265.814 287.348Z" fill="#F4EEF5"/>
<path d="M302.799 212.738C306.028 199.113 315.001 171.87 316.078 165.044" stroke="#292F44" stroke-width="2" stroke-linecap="round" stroke-linejoin="round"/>
<path d="M178.249 209.51C176.813 195.172 173.226 162.197 171.43 156.811" stroke="#292F44" stroke-width="2" stroke-linecap="round" stroke-linejoin="round"/>
<path d="M336.89 231.378C356.988 229.942 393.601 231.019 404.007 231.378" stroke="#292F44" stroke-width="2" stroke-linecap="round" stroke-linejoin="round"/>
<path d="M146.665 226.72C128 224.926 89.9545 224.926 83.1356 225.643" stroke="#292F44" stroke-width="2" stroke-linecap="round" stroke-linejoin="round"/>
<path d="M330.434 200.906C337.972 196.96 353.408 190.867 353.408 190.867" stroke="#292F44" stroke-width="2" stroke-linecap="round" stroke-linejoin="round"/>
<path d="M131.231 196.248C136.613 196.961 158.866 199.114 158.866 199.114" stroke="#292F44" stroke-width="2" stroke-linecap="round" stroke-linejoin="round"/>
<path d="M98.21 291.965C103.593 291.965 124.772 283.36 124.772 283.36" stroke="#292F44" stroke-width="2" stroke-linecap="round" stroke-linejoin="round"/>
<path d="M339.049 291.606C344.436 294.831 360.228 301.286 364.174 301.286" stroke="#292F44" stroke-width="2" stroke-linecap="round" stroke-linejoin="round"/>
<path d="M230.655 104.651C223.832 105.907 207.68 107.704 204.093 109.849" stroke="#292F44" stroke-width="2" stroke-linecap="round" stroke-linejoin="round"/>
<path d="M238.91 208.434C244.641 206.641 266.186 202.329 270.495 198.396" stroke="#292F44" stroke-width="2" stroke-linecap="round" stroke-linejoin="round"/>
</svg>
