<svg width="1370" height="986" viewBox="0 0 1370 986" fill="none" xmlns="http://www.w3.org/2000/svg">
<path d="M661.845 493.822C661.845 605.961 571.305 696.778 459.507 696.778C347.71 696.778 257.171 605.961 257.171 493.822H661.845Z" fill="#64D0FF"/>
<path d="M860 819.5C860 727.545 934.545 653 1026.5 653C1118.46 653 1193 727.545 1193 819.5C1193 911.455 1118.46 986 1026.5 986C934.545 986 860 911.455 860 819.5Z" fill="#FF6C46"/>
<path d="M1363.41 5.60437C1255.08 9.37464 1188.48 121.767 1240.37 178.397C1294.29 237.271 1336.78 190.312 1321.98 157.34C1295.13 97.5433 1196.1 102.935 1153.55 163.806C1111 224.678 1132.34 288.226 1132.34 288.226" stroke="#E6DEE7" stroke-width="2" stroke-linecap="round" stroke-linejoin="round" stroke-dasharray="260.04 260.04"/>
<path d="M71 162.5C71 119.698 105.698 85 148.5 85C191.302 85 226 119.698 226 162.5C226 205.302 191.302 240 148.5 240C105.698 240 71 205.302 71 162.5Z" fill="#127B75"/>
<path d="M357.454 738.865C371.313 767.688 348.816 800.309 315.081 800.309H-236.304C-270.038 800.309 -292.534 767.688 -278.676 738.865L-2.98297 165.474C13.4676 131.259 65.3102 131.259 81.7608 165.474L357.454 738.865Z" fill="#FF6C46"/>
<path d="M179.182 451.204C206.818 451.204 231.179 459.475 252.262 476.019C273.346 492.277 283.888 514.81 283.888 543.618C283.888 574.137 272.634 599.238 250.126 618.919C227.902 638.314 198.983 648.012 163.368 648.012C129.179 648.012 102.396 642.165 83.0221 630.471C63.6478 618.777 53.9607 603.232 53.9607 583.835C53.9607 571.571 57.5221 562.586 64.6451 556.881C72.0529 550.891 80.8853 547.896 91.1423 547.896C98.5501 547.896 104.818 550.321 109.947 555.17C115.36 560.019 119.634 565.866 122.768 572.711C125.902 579.557 129.036 586.403 132.17 593.248C135.589 600.094 139.863 605.941 144.992 610.79C150.405 615.639 156.673 618.063 163.796 618.063C175.763 618.063 185.45 612.787 192.858 602.233C200.55 591.679 204.397 575.564 204.397 553.887C204.397 505.397 187.871 481.152 154.821 481.152C140.005 481.152 124.905 487.286 109.519 499.55C101.827 505.825 92.9943 507.109 83.0221 503.401C73.335 499.693 69.0613 493.418 70.2009 484.575L86.0138 349.377C86.8686 343.102 90.7149 339.964 97.5529 339.964H262.092C269.215 339.964 272.777 343.529 272.777 350.66V390.45C272.777 397.58 269.215 401.146 262.092 401.146H116.785L106.528 476.447C127.612 459.618 151.829 451.204 179.182 451.204Z" fill="#201C33"/>
<path d="M661.842 493.822C661.842 523.832 642.16 553.841 602.795 576.742C524.064 622.546 395.734 622.546 317.004 576.742C277.638 553.841 257.956 523.832 257.956 493.822C257.956 381.684 348.496 290.867 460.293 290.867C571.302 290.867 661.842 381.684 661.842 493.822Z" fill="#127B75"/>
<path d="M624.907 674.153L555.013 783.595L550.043 780.581L619.936 671.439L624.907 674.153ZM584.688 703.096C584.688 708.925 583.332 714.302 580.621 719.226C577.91 724.151 574.194 728.02 569.474 730.834C564.855 733.648 559.834 735.055 554.411 735.055C547.381 735.055 541.557 732.844 536.938 728.422C532.318 724 530.008 717.92 530.008 710.182C530.008 704.252 531.364 698.825 534.075 693.901C536.787 688.976 540.452 685.107 545.072 682.293C549.792 679.479 554.863 678.072 560.286 678.072C567.315 678.072 573.14 680.283 577.759 684.705C582.378 689.127 584.688 695.258 584.688 703.096ZM544.921 696.916C544.921 705.056 546.929 711.337 550.946 715.759C554.963 720.081 560.988 722.694 569.022 723.598C569.524 720.885 569.775 718.422 569.775 716.211C569.775 708.071 567.767 701.84 563.75 697.519C559.733 693.197 553.708 690.534 545.674 689.529C545.172 692.243 544.921 694.705 544.921 696.916ZM616.019 725.859C623.049 725.859 628.874 728.07 633.493 732.492C638.112 736.914 640.422 743.044 640.422 750.883C640.422 756.712 639.066 762.089 636.355 767.014C633.643 771.938 629.928 775.807 625.208 778.621C620.589 781.435 615.568 782.842 610.145 782.842C603.115 782.842 597.291 780.631 592.672 776.209C588.052 771.787 585.742 765.707 585.742 757.968C585.742 752.039 587.098 746.612 589.809 741.688C592.521 736.763 596.186 732.894 600.806 730.08C605.525 727.266 610.597 725.859 616.019 725.859ZM600.655 744.703C600.655 752.843 602.664 759.124 606.681 763.546C610.697 767.868 616.722 770.48 624.756 771.385C625.258 768.672 625.509 766.209 625.509 763.998C625.509 755.858 623.501 749.627 619.484 745.305C615.467 740.984 609.442 738.321 601.408 737.316C600.906 740.03 600.655 742.492 600.655 744.703Z" fill="#201C33"/>
</svg>
