<svg width="646" height="476" viewBox="0 0 646 476" fill="none" xmlns="http://www.w3.org/2000/svg">
<path d="M0 116C0 51.935 51.935 0 116 0C180.065 0 232 51.935 232 116C232 180.065 180.065 232 116 232C51.935 232 0 180.065 0 116Z" fill="#1C182A"/>
<path d="M63.1055 116.794C62.3579 118.643 61.1764 119.907 59.561 120.586C57.9536 121.268 56.1189 121.276 54.0569 120.611C51.8016 119.884 50.2698 118.553 49.4615 116.621C48.6639 114.683 48.6926 112.388 49.5476 109.738L49.8945 108.663C50.4402 106.972 51.219 105.578 52.2308 104.481C53.2427 103.385 54.4108 102.672 55.7352 102.344C57.0702 102.01 58.4707 102.079 59.9367 102.552C61.9665 103.207 63.4262 104.278 64.3158 105.766C65.2054 107.253 65.4298 109.011 64.989 111.039L61.3644 109.869C61.6422 108.705 61.5891 107.781 61.2051 107.096C60.8318 106.407 60.0893 105.883 58.9778 105.524C57.7695 105.134 56.7231 105.277 55.8383 105.952C54.9642 106.622 54.2254 107.864 53.622 109.679L53.1932 111.008C52.58 112.909 52.4176 114.391 52.7063 115.453C53.0029 116.518 53.7715 117.251 55.0119 117.651C56.1315 118.012 57.0471 118.027 57.7585 117.697C58.4806 117.361 59.0547 116.67 59.4809 115.625L63.1055 116.794ZM65.2552 116.607C65.6736 115.31 66.2962 114.235 67.123 113.381C67.9498 112.527 68.9201 111.973 70.0337 111.719C71.1554 111.467 72.3365 111.542 73.5769 111.942C75.3409 112.511 76.6046 113.514 77.3679 114.952C78.1393 116.393 78.2906 118.06 77.8218 119.954L77.5575 120.856C76.9104 122.862 75.8309 124.292 74.3189 125.147C72.8094 125.994 71.1123 126.114 69.2275 125.506C67.3427 124.898 66.0314 123.807 65.2935 122.235C64.5637 120.666 64.5341 118.842 65.2045 116.764L65.2552 116.607ZM68.6651 117.987C68.2649 119.228 68.1918 120.254 68.4459 121.065C68.7026 121.868 69.2659 122.41 70.1358 122.69C70.9815 122.963 71.746 122.854 72.4291 122.363C73.1148 121.864 73.6876 120.902 74.1476 119.476C74.54 118.26 74.6064 117.241 74.3469 116.419C74.0874 115.597 73.5267 115.047 72.6648 114.769C71.811 114.493 71.0427 114.615 70.3598 115.132C69.6795 115.642 69.1146 116.594 68.6651 117.987ZM85.4195 116.029L85.0566 117.526C86.3493 116.689 87.785 116.526 89.3637 117.035C91.0472 117.578 91.9886 118.616 92.1881 120.147C93.5352 119.114 95.0584 118.872 96.758 119.421C98.1756 119.878 99.0969 120.633 99.522 121.686C99.9496 122.731 99.8958 124.084 99.3605 125.743L96.6669 134.092L93.1631 132.961L95.8528 124.624C96.0918 123.883 96.121 123.297 95.9401 122.865C95.7619 122.425 95.3063 122.087 94.5733 121.851C93.5262 121.513 92.6402 121.778 91.9152 122.647L89.0311 131.628L85.5393 130.501L88.2251 122.177C88.4693 121.42 88.497 120.824 88.3082 120.389C88.1193 119.955 87.6664 119.622 86.9495 119.391C85.9588 119.071 85.1094 119.251 84.4013 119.929L81.4194 129.172L77.9276 128.046L82.1453 114.973L85.4195 116.029ZM113.485 132.434C112.835 134.448 111.855 135.914 110.544 136.834C109.244 137.749 107.817 137.956 106.262 137.454C104.941 137.028 104.022 136.224 103.505 135.044L101.517 141.206L98.0252 140.079L103.864 121.98L107.102 123.025L106.81 124.344C107.983 123.602 109.25 123.451 110.612 123.89C112.223 124.41 113.283 125.41 113.792 126.891C114.302 128.371 114.219 130.158 113.543 132.253L113.485 132.434ZM110.075 131.054C110.467 129.837 110.552 128.829 110.33 128.028C110.117 127.23 109.599 126.698 108.777 126.433C107.682 126.08 106.794 126.256 106.113 126.961L104.386 132.313C104.535 133.313 105.157 133.989 106.252 134.343C107.92 134.881 109.194 133.784 110.075 131.054ZM119.814 141.826C117.897 141.208 116.524 140.116 115.695 138.55C114.874 136.987 114.78 135.226 115.411 133.269L115.52 132.931C115.944 131.618 116.576 130.528 117.416 129.66C118.259 128.785 119.233 128.219 120.338 127.962C121.455 127.7 122.609 127.761 123.801 128.145C125.589 128.722 126.813 129.74 127.472 131.197C128.139 132.657 128.139 134.423 127.471 136.493L127.011 137.918L118.686 135.233C118.524 136.123 118.641 136.917 119.038 137.614C119.444 138.314 120.082 138.804 120.952 139.085C122.297 139.519 123.505 139.371 124.577 138.641L125.673 141.115C124.91 141.687 124.014 142.038 122.985 142.169C121.958 142.291 120.901 142.177 119.814 141.826ZM122.877 130.969C122.184 130.745 121.545 130.797 120.959 131.124C120.381 131.453 119.892 132.033 119.49 132.864L124.347 134.431L124.437 134.153C124.67 133.375 124.653 132.711 124.386 132.162C124.121 131.606 123.618 131.208 122.877 130.969ZM136.982 129.116L135.945 132.33L138.181 133.051L137.354 135.613L135.119 134.892L133.014 141.416C132.858 141.899 132.839 142.276 132.957 142.545C133.075 142.814 133.395 143.033 133.919 143.202C134.305 143.327 134.657 143.409 134.973 143.449L134.119 146.095C133.367 146.083 132.628 145.96 131.904 145.727C129.455 144.937 128.605 143.297 129.355 140.809L131.627 133.765L129.718 133.149L130.545 130.588L132.454 131.204L133.491 127.99L136.982 129.116ZM142.133 149.027C140.216 148.408 138.843 147.316 138.014 145.75C137.193 144.187 137.099 142.427 137.73 140.47L137.839 140.131C138.263 138.818 138.895 137.728 139.735 136.861C140.577 135.986 141.551 135.42 142.657 135.163C143.773 134.9 144.927 134.961 146.12 135.346C147.908 135.923 149.131 136.94 149.79 138.398C150.458 139.858 150.457 141.623 149.789 143.693L149.33 145.119L141.005 142.433C140.842 143.324 140.96 144.117 141.357 144.815C141.763 145.515 142.401 146.005 143.27 146.286C144.616 146.72 145.824 146.572 146.896 145.841L147.991 148.316C147.229 148.888 146.333 149.239 145.304 149.369C144.277 149.492 143.22 149.378 142.133 149.027ZM145.195 138.169C144.503 137.946 143.863 137.997 143.278 138.324C142.7 138.654 142.211 139.234 141.809 140.065L146.666 141.632L146.756 141.354C146.989 140.576 146.972 139.912 146.704 139.363C146.439 138.806 145.936 138.408 145.195 138.169ZM157.298 139.219L156.919 140.764C158.23 139.898 159.671 139.718 161.242 140.225C162.627 140.672 163.527 141.411 163.941 142.443C164.355 143.475 164.309 144.803 163.803 146.427L161.078 154.872L157.587 153.746L160.284 145.385C160.523 144.644 160.535 144.056 160.319 143.622C160.106 143.18 159.625 142.838 158.876 142.596C157.893 142.279 157.021 142.46 156.26 143.14L153.285 152.358L149.794 151.232L154.011 138.159L157.298 139.219ZM173.457 140.884L172.42 144.098L174.655 144.819L173.829 147.38L171.594 146.659L169.489 153.184C169.333 153.667 169.314 154.043 169.431 154.312C169.549 154.582 169.87 154.801 170.393 154.97C170.78 155.094 171.131 155.177 171.447 155.216L170.594 157.862C169.842 157.851 169.103 157.728 168.378 157.494C165.929 156.704 165.08 155.065 165.829 152.577L168.102 145.533L166.193 144.917L167.019 142.356L168.928 142.971L169.965 139.758L173.457 140.884Z" fill="#E6DEE7"/>
<path d="M66.2413 103.26L74.0997 78.9024L82.6315 81.655C85.5869 82.6085 87.6451 83.9005 88.806 85.531C89.9705 87.1504 90.2001 89.053 89.4949 91.2389C89.1099 92.4323 88.4632 93.3873 87.5547 94.1039C86.6499 94.8094 85.5826 95.1977 84.3529 95.2689C85.5013 95.9841 86.2794 96.9309 86.6873 98.1092C87.1064 99.291 87.0947 100.568 86.6521 101.94C85.8965 104.282 84.5771 105.814 82.6941 106.536C80.811 107.259 78.483 107.185 75.7099 106.315L66.2413 103.26ZM74.6818 94.2728L72.5607 100.847L76.8601 102.234C78.0423 102.616 79.0523 102.634 79.8902 102.288C80.7429 101.936 81.3293 101.263 81.6496 100.27C82.3692 98.0397 81.5801 96.5353 79.2823 95.757L74.6818 94.2728ZM75.826 90.7262L79.5399 91.9244C82.0859 92.6966 83.6774 92.0957 84.3143 90.1216C84.6705 89.0175 84.6025 88.1213 84.1104 87.4331C83.633 86.7373 82.7029 86.1663 81.3199 85.7201L77.8068 84.5867L75.826 90.7262ZM93.9352 112.195L88.9165 110.575L96.7749 86.218L101.794 87.8372L93.9352 112.195ZM106.866 106.891L104.097 115.473L99.0785 113.854L106.937 89.4965L116.439 92.5622C118.268 93.1523 119.766 94.005 120.933 95.1203C122.111 96.2393 122.874 97.5382 123.222 99.0173C123.574 100.485 123.496 102.005 122.988 103.578C122.218 105.965 120.79 107.585 118.705 108.439C116.634 109.285 114.154 109.243 111.266 108.311L106.866 106.891ZM108.178 102.826L112.661 104.272C113.988 104.701 115.098 104.714 115.991 104.313C116.895 103.915 117.534 103.136 117.909 101.976C118.294 100.783 118.254 99.7046 117.788 98.7418C117.323 97.779 116.475 97.0868 115.245 96.6651L110.644 95.1809L108.178 102.826ZM145.429 115.971C144.655 118.369 143.553 120.334 142.123 121.868C140.692 123.401 139.027 124.403 137.127 124.873C135.238 125.348 133.272 125.255 131.232 124.597C129.213 123.946 127.568 122.879 126.298 121.398C125.027 119.917 124.246 118.138 123.956 116.062C123.669 113.975 123.897 111.758 124.642 109.412L125.031 108.208C125.804 105.81 126.914 103.841 128.359 102.3C129.819 100.752 131.492 99.7458 133.377 99.2829C135.278 98.8124 137.243 98.9046 139.272 99.5594C141.302 100.214 142.945 101.286 144.201 102.775C145.472 104.256 146.241 106.05 146.51 108.156C146.793 110.254 146.55 112.497 145.78 114.884L145.429 115.971ZM140.7 113.226C141.524 110.672 141.692 108.584 141.206 106.962C140.72 105.34 139.629 104.255 137.934 103.708C136.25 103.165 134.738 103.404 133.399 104.425C132.064 105.435 130.982 107.203 130.154 109.732L129.771 110.919C128.968 113.406 128.803 115.483 129.275 117.15C129.747 118.817 130.842 119.927 132.559 120.482C134.243 121.025 135.749 120.784 137.077 119.76C138.409 118.724 139.489 116.942 140.316 114.414L140.7 113.226ZM167.54 126.983C166.505 129.543 164.869 131.293 162.632 132.234C160.406 133.178 157.866 133.19 155.011 132.269C151.888 131.261 149.767 129.42 148.648 126.744C147.544 124.06 147.583 120.884 148.767 117.214L149.248 115.725C150.003 113.383 151.082 111.453 152.483 109.935C153.884 108.417 155.501 107.43 157.335 106.975C159.183 106.513 161.122 106.609 163.152 107.264C165.963 108.17 167.984 109.654 169.215 111.713C170.447 113.773 170.758 116.207 170.148 119.014L165.129 117.395C165.514 115.783 165.44 114.503 164.908 113.556C164.391 112.601 163.363 111.876 161.824 111.379C160.151 110.839 158.703 111.037 157.477 111.971C156.267 112.898 155.244 114.619 154.409 117.132L153.815 118.972C152.966 121.604 152.741 123.656 153.141 125.127C153.552 126.602 154.616 127.616 156.333 128.17C157.883 128.67 159.151 128.691 160.136 128.233C161.136 127.768 161.931 126.812 162.521 125.364L167.54 126.983Z" fill="#E6DEE7"/>
<path d="M43 359.5C43 302.891 88.8908 257 145.5 257C202.109 257 248 302.891 248 359.5C248 416.109 202.109 462 145.5 462C88.8908 462 43 416.109 43 359.5Z" fill="#64D0FF"/>
<path d="M135.301 402.123C136.494 403.206 137.123 404.454 137.187 405.868C137.256 407.276 136.751 408.669 135.671 410.047C134.491 411.554 133.055 412.344 131.365 412.417C129.674 412.482 127.943 411.82 126.172 410.433L125.454 409.87C124.324 408.985 123.484 408.006 122.935 406.933C122.387 405.86 122.172 404.776 122.292 403.68C122.411 402.575 122.855 401.533 123.622 400.554C124.684 399.198 125.904 398.39 127.279 398.13C128.655 397.871 130.05 398.191 131.464 399.091L129.567 401.512C128.762 400.977 128.046 400.759 127.421 400.86C126.794 400.95 126.189 401.367 125.608 402.109C124.975 402.917 124.791 403.75 125.056 404.608C125.32 405.458 126.056 406.364 127.263 407.328L128.151 408.024C129.421 409.019 130.499 409.555 131.385 409.632C132.275 409.704 133.045 409.326 133.694 408.497C134.28 407.75 134.547 407.06 134.495 406.428C134.441 405.787 134.078 405.159 133.404 404.545L135.301 402.123ZM135.795 400.396C134.928 399.718 134.287 398.946 133.87 398.081C133.454 397.216 133.304 396.326 133.422 395.411C133.544 394.49 133.93 393.616 134.579 392.787C135.502 391.609 136.616 390.931 137.918 390.753C139.226 390.57 140.532 390.921 141.837 391.804L142.447 392.256C143.786 393.306 144.57 394.523 144.796 395.908C145.017 397.288 144.634 398.608 143.648 399.867C142.661 401.126 141.469 401.816 140.072 401.937C138.679 402.052 137.288 401.566 135.9 400.479L135.795 400.396ZM137.792 398.197C138.621 398.846 139.378 399.187 140.064 399.221C140.744 399.25 141.312 398.974 141.767 398.393C142.21 397.828 142.34 397.218 142.159 396.564C141.972 395.905 141.402 395.202 140.449 394.456C139.637 393.819 138.883 393.485 138.188 393.452C137.492 393.42 136.919 393.691 136.468 394.267C136.021 394.837 135.899 395.454 136.101 396.116C136.297 396.774 136.861 397.467 137.792 398.197ZM141.016 384.905L142.049 385.597C141.775 384.384 142.052 383.25 142.878 382.195C143.759 381.071 144.808 380.647 146.025 380.922C145.618 379.613 145.859 378.391 146.748 377.256C147.491 376.309 148.32 375.821 149.237 375.792C150.148 375.76 151.158 376.178 152.267 377.046L157.844 381.416L156.01 383.757L150.441 379.393C149.946 379.005 149.509 378.82 149.131 378.836C148.748 378.849 148.365 379.1 147.981 379.589C147.433 380.289 147.387 381.035 147.844 381.827L153.847 386.517L152.019 388.85L146.458 384.493C145.952 384.096 145.509 383.909 145.127 383.931C144.745 383.953 144.366 384.204 143.991 384.683C143.472 385.344 143.371 386.038 143.688 386.764L149.863 391.602L148.035 393.935L139.302 387.092L141.016 384.905ZM161.313 368.16C162.658 369.214 163.497 370.367 163.829 371.617C164.16 372.857 163.918 373.997 163.104 375.035C162.413 375.918 161.548 376.39 160.508 376.453L164.625 379.678L162.797 382.011L150.706 372.537L152.401 370.374L153.32 370.964C153.084 369.868 153.323 368.865 154.036 367.955C154.879 366.879 155.933 366.355 157.197 366.381C158.461 366.408 159.793 366.969 161.192 368.066L161.313 368.16ZM159.316 370.36C158.503 369.724 157.763 369.378 157.094 369.323C156.429 369.262 155.882 369.506 155.452 370.055C154.878 370.787 154.764 371.509 155.109 372.222L158.684 375.024C159.483 375.19 160.17 374.907 160.743 374.175C161.616 373.061 161.14 371.79 159.316 370.36ZM170.233 365.937C169.23 367.217 168.019 367.953 166.601 368.145C165.187 368.331 163.827 367.912 162.519 366.887L162.293 366.71C161.416 366.023 160.766 365.24 160.343 364.362C159.914 363.479 159.757 362.582 159.87 361.673C159.983 360.753 160.351 359.895 160.975 359.099C161.911 357.905 163.023 357.261 164.312 357.168C165.605 357.069 166.943 357.562 168.326 358.645L169.278 359.391L164.921 364.953C165.55 365.324 166.185 365.457 166.824 365.35C167.468 365.237 168.017 364.891 168.473 364.31C169.177 363.411 169.402 362.454 169.147 361.438L171.328 361.297C171.549 362.035 171.566 362.812 171.377 363.628C171.184 364.441 170.802 365.21 170.233 365.937ZM162.857 360.587C162.495 361.05 162.356 361.549 162.44 362.084C162.529 362.614 162.832 363.146 163.35 363.682L165.892 360.438L165.706 360.292C165.181 359.898 164.674 359.726 164.183 359.776C163.687 359.822 163.245 360.092 162.857 360.587ZM165.423 349.333L167.57 351.015L168.74 349.522L170.451 350.862L169.281 352.356L173.639 355.771C173.962 356.024 174.242 356.143 174.479 356.129C174.716 356.115 174.971 355.933 175.245 355.583C175.448 355.325 175.608 355.081 175.726 354.853L177.494 356.238C177.275 356.805 176.977 357.33 176.597 357.815C175.315 359.45 173.836 359.637 172.159 358.375L167.453 354.688L166.454 355.964L164.743 354.623L165.742 353.348L163.595 351.665L165.423 349.333ZM181.987 350.936C180.983 352.216 179.773 352.953 178.355 353.144C176.941 353.33 175.58 352.911 174.273 351.887L174.047 351.71C173.17 351.022 172.519 350.239 172.096 349.361C171.668 348.478 171.51 347.582 171.624 346.672C171.736 345.753 172.104 344.895 172.728 344.098C173.664 342.904 174.777 342.26 176.066 342.167C177.359 342.068 178.696 342.561 180.079 343.644L181.032 344.391L176.674 349.952C177.304 350.323 177.938 350.456 178.578 350.349C179.222 350.237 179.771 349.89 180.226 349.309C180.93 348.41 181.155 347.453 180.9 346.437L183.082 346.296C183.303 347.034 183.319 347.811 183.131 348.628C182.937 349.44 182.556 350.209 181.987 350.936ZM174.611 345.586C174.248 346.049 174.109 346.548 174.194 347.083C174.282 347.613 174.585 348.146 175.103 348.682L177.646 345.437L177.46 345.292C176.935 344.898 176.427 344.725 175.937 344.775C175.441 344.821 174.999 345.091 174.611 345.586ZM178.817 336.66L179.883 337.378C179.592 336.142 179.857 335 180.68 333.95C181.405 333.025 182.216 332.549 183.114 332.523C184.011 332.497 185.005 332.902 186.095 333.739L191.737 338.159L189.909 340.492L184.324 336.116C183.829 335.728 183.387 335.555 182.998 335.597C182.603 335.636 182.209 335.905 181.817 336.405C181.303 337.062 181.197 337.773 181.499 338.54L187.658 343.365L185.83 345.698L177.097 338.855L178.817 336.66ZM184.621 324.83L186.768 326.512L187.938 325.019L189.649 326.36L188.479 327.853L192.838 331.268C193.161 331.521 193.441 331.64 193.678 331.626C193.914 331.612 194.17 331.43 194.444 331.08C194.646 330.822 194.807 330.578 194.925 330.35L196.693 331.735C196.474 332.302 196.175 332.827 195.796 333.312C194.514 334.948 193.035 335.134 191.357 333.872L186.652 330.185L185.653 331.461L183.941 330.12L184.941 328.845L182.794 327.162L184.621 324.83Z" fill="#1C182A"/>
<path d="M119.064 368.051L115.035 373.194L129.021 384.153L126.311 387.612L112.324 376.653L108.349 381.726L105.547 379.531L116.262 365.856L119.064 368.051ZM142.946 362.011C143.204 363.217 143.095 364.552 142.618 366.015C142.134 367.472 141.35 368.893 140.266 370.276C139.128 371.729 137.813 372.758 136.321 373.363C134.828 373.955 133.243 374.078 131.566 373.732C129.896 373.378 128.24 372.571 126.598 371.309L125.456 370.415C123.781 369.102 122.551 367.686 121.769 366.167C120.985 364.634 120.685 363.085 120.871 361.518C121.054 359.938 121.706 358.432 122.827 357.003C124.387 355.012 126.083 353.828 127.916 353.453C129.74 353.072 131.641 353.488 133.618 354.702L130.98 358.069C129.899 357.469 128.927 357.26 128.066 357.441C127.21 357.615 126.421 358.163 125.698 359.085C124.777 360.261 124.517 361.503 124.919 362.811C125.322 364.118 126.392 365.46 128.131 366.835L129.203 367.675C130.964 369.054 132.556 369.762 133.979 369.798C135.402 369.834 136.62 369.206 137.632 367.914C138.65 366.615 139.099 365.472 138.979 364.485L136.085 362.217L133.618 365.365L131.07 363.369L136.247 356.762L142.946 362.011ZM158.278 346.814L155.567 350.273L139.245 348.352L150.291 357.007L147.581 360.466L130.792 347.312L133.503 343.852L149.857 345.78L138.788 337.107L141.489 333.659L158.278 346.814ZM165.687 325.838C167.391 327.384 168.289 329.167 168.381 331.187C168.48 333.199 167.758 335.189 166.216 337.157C164.529 339.31 162.479 340.439 160.064 340.544C157.647 340.635 155.175 339.69 152.646 337.709L151.619 336.905C150.005 335.64 148.806 334.241 148.022 332.709C147.237 331.176 146.931 329.627 147.103 328.062C147.273 326.483 147.906 324.995 149.002 323.596C150.52 321.658 152.262 320.504 154.227 320.134C156.192 319.763 158.185 320.22 160.205 321.505L157.495 324.965C156.345 324.2 155.323 323.889 154.429 324.032C153.533 324.162 152.67 324.757 151.839 325.818C150.935 326.971 150.673 328.161 151.051 329.388C151.428 330.601 152.479 331.896 154.204 333.273L155.473 334.267C157.287 335.688 158.827 336.454 160.092 336.565C161.364 336.668 162.463 336.128 163.391 334.944C164.228 333.875 164.609 332.89 164.535 331.988C164.458 331.072 163.939 330.175 162.977 329.297L165.687 325.838Z" fill="#1C182A"/>
<path d="M284 258C284 175.157 351.157 108 434 108C516.843 108 584 175.157 584 258C584 340.843 516.843 408 434 408C351.157 408 284 340.843 284 258Z" fill="#F6B60D"/>
<path d="M404.405 314.206C405.626 316.157 406.006 318.116 405.547 320.086C405.096 322.049 403.861 323.769 401.843 325.245C399.636 326.859 397.356 327.389 395.003 326.835C392.653 326.268 390.529 324.688 388.632 322.095L387.862 321.042C386.652 319.387 385.877 317.715 385.538 316.028C385.199 314.34 385.324 312.766 385.914 311.306C386.506 309.833 387.519 308.571 388.954 307.522C390.94 306.069 392.929 305.431 394.921 305.607C396.914 305.784 398.708 306.764 400.303 308.549L396.756 311.143C395.857 310.095 394.957 309.519 394.058 309.415C393.161 309.296 392.169 309.635 391.081 310.431C389.899 311.296 389.323 312.37 389.355 313.653C389.388 314.923 390.049 316.455 391.336 318.248L392.287 319.548C393.648 321.409 394.922 322.564 396.11 323.014C397.306 323.458 398.511 323.236 399.725 322.348C400.82 321.547 401.454 320.702 401.627 319.813C401.802 318.911 401.546 317.907 400.858 316.801L404.405 314.206ZM405.649 312.099C404.721 310.83 404.138 309.52 403.9 308.169C403.662 306.819 403.802 305.537 404.318 304.324C404.843 303.106 405.712 302.053 406.926 301.165C408.652 299.902 410.445 299.401 412.305 299.662C414.174 299.917 415.834 300.905 417.286 302.625L417.949 303.483C419.385 305.446 419.99 307.423 419.765 309.415C419.534 311.398 418.496 313.065 416.652 314.414C414.807 315.763 412.901 316.25 410.933 315.874C408.972 315.493 407.249 314.286 405.761 312.252L405.649 312.099ZM409.247 309.848C410.135 311.062 411.044 311.825 411.974 312.137C412.898 312.441 413.786 312.281 414.637 311.659C415.465 311.053 415.88 310.265 415.884 309.295C415.882 308.316 415.371 307.129 414.351 305.734C413.48 304.544 412.573 303.792 411.63 303.478C410.686 303.163 409.793 303.315 408.949 303.932C408.114 304.543 407.707 305.343 407.728 306.331C407.743 307.312 408.25 308.484 409.247 309.848ZM418.727 292.897L419.879 294.249C419.973 292.475 420.792 291.023 422.337 289.893C423.985 288.688 425.591 288.511 427.157 289.362C427.105 287.404 427.91 285.817 429.573 284.601C430.961 283.586 432.29 283.237 433.562 283.553C434.828 283.861 436.054 284.827 437.242 286.451L443.218 294.621L439.789 297.128L433.822 288.97C433.291 288.245 432.763 287.821 432.237 287.697C431.706 287.566 431.081 287.762 430.364 288.287C429.339 289.037 428.987 290.044 429.308 291.31L435.745 300.086L432.328 302.585L426.37 294.439C425.828 293.698 425.29 293.268 424.756 293.151C424.223 293.033 423.605 293.231 422.903 293.744C421.934 294.453 421.526 295.368 421.681 296.489L428.296 305.534L424.879 308.033L415.523 295.24L418.727 292.897ZM453.02 277.814C454.462 279.785 455.168 281.694 455.14 283.541C455.114 285.375 454.341 286.848 452.819 287.961C451.527 288.906 450.154 289.221 448.7 288.904L453.111 294.934L449.694 297.434L436.74 279.722L439.908 277.404L440.943 278.571C441.044 276.973 441.761 275.686 443.093 274.712C444.67 273.559 446.322 273.246 448.05 273.773C449.778 274.299 451.392 275.587 452.891 277.637L453.02 277.814ZM449.422 280.065C448.551 278.875 447.667 278.112 446.768 277.777C445.878 277.436 445.031 277.56 444.227 278.148C443.155 278.932 442.718 279.881 442.915 280.995L446.746 286.232C447.781 286.77 448.834 286.647 449.906 285.863C451.538 284.67 451.376 282.737 449.422 280.065ZM466.044 278.288C464.168 279.661 462.218 280.204 460.194 279.918C458.178 279.626 456.469 278.522 455.068 276.607L454.826 276.276C453.886 274.991 453.296 273.662 453.054 272.29C452.807 270.91 452.938 269.617 453.447 268.41C453.957 267.189 454.796 266.152 455.963 265.299C457.713 264.019 459.492 263.565 461.3 263.936C463.116 264.302 464.765 265.498 466.246 267.523L467.267 268.919L459.12 274.877C459.842 275.632 460.663 276.06 461.584 276.161C462.512 276.256 463.402 275.992 464.253 275.369C465.57 274.406 466.25 273.177 466.293 271.682L469.347 272.334C469.365 273.433 469.086 274.508 468.511 275.558C467.93 276.6 467.108 277.51 466.044 278.288ZM457.974 268.075C457.297 268.57 456.912 269.203 456.821 269.971C456.737 270.734 456.948 271.584 457.452 272.522L462.205 269.045L462.006 268.773C461.437 268.028 460.806 267.595 460.112 267.473C459.412 267.344 458.7 267.544 457.974 268.075ZM465.759 253.67L468.059 256.815L470.247 255.215L472.08 257.721L469.893 259.321L474.562 265.706C474.908 266.179 475.247 266.452 475.578 266.524C475.909 266.596 476.331 266.445 476.843 266.07C477.222 265.794 477.537 265.521 477.788 265.252L479.682 267.842C479.162 268.537 478.547 269.144 477.837 269.663C475.441 271.415 473.335 271.099 471.517 268.714L466.476 261.82L464.608 263.187L462.774 260.68L464.642 259.314L462.342 256.169L465.759 253.67ZM487.81 262.368C485.934 263.741 483.984 264.284 481.96 263.997C479.944 263.706 478.236 262.602 476.835 260.687L476.592 260.356C475.653 259.071 475.062 257.742 474.821 256.37C474.574 254.99 474.705 253.697 475.213 252.49C475.724 251.269 476.563 250.232 477.729 249.379C479.479 248.099 481.258 247.645 483.066 248.016C484.882 248.382 486.531 249.578 488.013 251.603L489.033 252.999L480.887 258.957C481.608 259.712 482.429 260.14 483.35 260.24C484.279 260.336 485.169 260.072 486.02 259.449C487.336 258.486 488.016 257.257 488.06 255.762L491.113 256.414C491.132 257.513 490.853 258.588 490.278 259.638C489.697 260.68 488.874 261.59 487.81 262.368ZM479.741 252.155C479.063 252.65 478.679 253.282 478.587 254.051C478.504 254.814 478.714 255.664 479.219 256.602L483.972 253.125L483.773 252.853C483.204 252.108 482.572 251.675 481.878 251.553C481.179 251.424 480.466 251.624 479.741 252.155ZM488.88 241.586L490.067 242.987C490.146 241.175 490.954 239.707 492.491 238.583C493.846 237.591 495.146 237.251 496.391 237.563C497.635 237.875 498.845 238.817 500.019 240.39L506.064 248.655L502.647 251.154L496.663 242.972C496.132 242.247 495.591 241.838 495.04 241.745C494.482 241.645 493.837 241.863 493.104 242.399C492.142 243.102 491.721 244.04 491.84 245.211L498.438 254.232L495.021 256.732L485.664 243.939L488.88 241.586ZM501.341 227.645L503.641 230.79L505.829 229.19L507.662 231.697L505.475 233.297L510.144 239.681C510.49 240.154 510.829 240.427 511.16 240.499C511.491 240.572 511.913 240.42 512.425 240.046C512.804 239.769 513.119 239.496 513.37 239.228L515.264 241.817C514.744 242.512 514.129 243.119 513.419 243.638C511.023 245.39 508.917 245.074 507.099 242.689L502.058 235.796L500.19 237.162L498.356 234.656L500.224 233.289L497.924 230.144L501.341 227.645Z" fill="#1C182A"/>
<path d="M388.235 293.073L402.545 282.607L406.505 288.021L385.456 303.416L361.533 270.708L368.272 265.779L388.235 293.073ZM432.213 262.873C432.063 265.213 431.175 267.598 429.55 270.028C427.914 272.443 425.748 274.636 423.052 276.608C420.222 278.678 417.287 279.883 414.247 280.221C411.211 280.533 408.249 279.941 405.361 278.444C402.488 276.936 399.876 274.606 397.524 271.453L395.897 269.229C393.509 265.964 391.991 262.741 391.343 259.56C390.698 256.353 390.949 253.365 392.096 250.595C393.247 247.8 395.215 245.383 398 243.346C401.879 240.509 405.591 239.219 409.136 239.477C412.67 239.72 415.931 241.461 418.921 244.7L412.361 249.497C410.692 247.844 409.024 246.961 407.355 246.849C405.701 246.725 403.976 247.32 402.179 248.635C399.887 250.311 398.772 252.448 398.834 255.046C398.896 257.645 400.162 260.65 402.634 264.06L404.162 266.149C406.67 269.579 409.217 271.693 411.801 272.493C414.386 273.292 416.936 272.771 419.452 270.931C421.983 269.08 423.393 267.221 423.683 265.354L419.559 259.715L413.426 264.201L409.795 259.236L422.667 249.821L432.213 262.873ZM441.121 262.703L417.198 229.994L428.655 221.615C432.624 218.712 436.193 217.274 439.362 217.301C442.52 217.313 445.173 218.786 447.32 221.722C448.492 223.324 449.115 225.041 449.189 226.871C449.253 228.687 448.759 230.416 447.708 232.059C449.692 231.251 451.628 231.133 453.518 231.705C455.423 232.266 457.048 233.468 458.396 235.31C460.696 238.455 461.434 241.57 460.61 244.655C459.787 247.741 457.529 250.656 453.836 253.403L441.121 262.703ZM437.444 243.531L443.901 252.359L449.674 248.137C451.262 246.976 452.224 245.698 452.559 244.303C452.899 242.882 452.582 241.505 451.607 240.172C449.416 237.176 446.754 236.79 443.621 239.012L437.444 243.531ZM433.96 238.768L438.948 235.121C442.303 232.574 443.012 229.976 441.073 227.325C439.989 225.842 438.777 225.097 437.437 225.088C436.101 225.053 434.505 225.715 432.648 227.073L427.93 230.524L433.96 238.768ZM486.312 205.685C488.547 208.74 489.997 211.76 490.662 214.745C491.317 217.714 491.266 220.521 490.511 223.165L499.069 223.457L497.555 230.392L486.5 229.892C485.805 230.607 485.03 231.277 484.177 231.902C481.466 233.884 478.571 235.002 475.491 235.254C472.412 235.507 469.406 234.854 466.474 233.298C463.532 231.726 460.903 229.373 458.587 226.239L457.404 224.621C455.049 221.402 453.556 218.149 452.923 214.865C452.295 211.554 452.56 208.475 453.719 205.628C454.882 202.754 456.826 200.321 459.552 198.327C462.277 196.334 465.178 195.224 468.254 194.997C471.333 194.745 474.348 195.425 477.297 197.037C480.251 198.624 482.9 201.02 485.244 204.225L486.312 205.685ZM478.398 209.197C475.89 205.768 473.37 203.611 470.838 202.727C468.307 201.843 465.903 202.234 463.626 203.899C461.365 205.553 460.267 207.712 460.331 210.378C460.385 213.028 461.647 216.059 464.119 219.469L465.285 221.064C467.728 224.404 470.237 226.546 472.812 227.49C475.388 228.434 477.829 228.062 480.135 226.375C482.396 224.721 483.487 222.567 483.408 219.912C483.317 217.243 482.036 214.203 479.565 210.792L478.398 209.197Z" fill="#1C182A"/>
</svg>
